<?xml version="1.0" encoding="UTF-8" standalone="no"?>
<svg
   version="1.0"
   id="svg2"
   x="0px"
   y="0px"
   width="1655.523px"
   height="1983.527px"
   viewBox="0 0 1655.523 1983.527"
   enable-background="new 0 0 1655.523 1983.527"
   xml:space="preserve"
   sodipodi:docname="denmark-regions.svg"
   inkscape:version="1.3.1 (91b66b0783, 2023-11-16)"
   xmlns:inkscape="http://www.inkscape.org/namespaces/inkscape"
   xmlns:sodipodi="http://sodipodi.sourceforge.net/DTD/sodipodi-0.dtd"
   xmlns="http://www.w3.org/2000/svg"
   xmlns:svg="http://www.w3.org/2000/svg"
   xmlns:rdf="http://www.w3.org/1999/02/22-rdf-syntax-ns#"
   xmlns:cc="http://creativecommons.org/ns#"
   xmlns:dc="http://purl.org/dc/elements/1.1/"><sodipodi:namedview
   id="namedview1"
   pagecolor="#ffffff"
   bordercolor="#666666"
   borderopacity="1.0"
   inkscape:showpageshadow="2"
   inkscape:pageopacity="0.0"
   inkscape:pagecheckerboard="0"
   inkscape:deskcolor="#d1d1d1"
   inkscape:zoom="0.84060253"
   inkscape:cx="764.3327"
   inkscape:cy="789.31478"
   inkscape:window-width="2560"
   inkscape:window-height="1417"
   inkscape:window-x="1912"
   inkscape:window-y="-8"
   inkscape:window-maximized="1"
   inkscape:current-layer="svg2" /><metadata
   id="metadata121"><rdf:RDF><cc:Work
       rdf:about=""><dc:format>image/svg+xml</dc:format><dc:type
         rdf:resource="http://purl.org/dc/dcmitype/StillImage" /></cc:Work></rdf:RDF></metadata><defs
   id="defs119">
	
	
	
	
	
	
	
	
	
	
	
	
	
	
	
	
	
	
	
	
	
	
	
	
	
	
	
	
	
	
	
	
	
	
	
	
	
	
	
	
	
	
	
	
	
	
	
	
	
	
	
	
	
	
	
	
	
	
	
	
	
	
	
	
	
	
	
	
	
	
	
	
	
	
	
		
	
	
	
	
	
	
	
	
	
	
	
		
	
	
	

	
	
	
</defs>

<g
   id="g1"
   style="fill:#aad7ff"
   transform="translate(-165.62946,1277.3855)"><path
     id="path11163"
     stroke="#000000"
     stroke-width="0.8464"
     d="m 1292.565,-195.413 -2.566,1.691 1.693,0.873 2.565,2.566 v 8.543 l 0.847,5.131 3.438,1.719 4.258,3.412 c 0,0 4.277,1.693 7.697,1.693 3.42,0 3.438,1.719 3.438,1.719 l 2.565,1.719 9.39,6.824 4.285,0.873 11.955,3.412 17.112,1.719 6.824,5.979 5.131,4.285 5.132,9.389 -3.412,15.395 -0.847,8.543 -2.565,7.697 -2.565,5.131 -3.438,5.131 h -8.543 l -8.544,-1.719 -6.851,2.564 -5.131,4.285 -6.824,0.848 -4.284,-1.693 -4.259,-6.852 -5.131,-0.846 -0.873,3.412 0.873,5.979 5.978,2.564 2.565,2.566 v 6.85 l -0.847,8.543 -1.719,10.264 -2.565,7.695 -6.851,5.133 -4.259,1.719 h -3.438 l -2.565,3.412 -5.131,3.412 -1.693,-6.824 -5.978,-0.873 0.847,6.85 -2.565,7.697 -8.544,2.566 -4.284,-3.439 -2.565,-3.412 -1.72,-3.412 -1.692,-3.412 -1.719,3.412 -0.847,5.979 -5.132,1.719 -5.131,-2.564 -2.565,-3.439 0.847,-4.258 -3.412,-3.412 -5.979,-2.566 -11.135,2.566 -5.978,5.131 -11.108,4.258 -7.697,0.848 -5.978,-1.693 -7.697,-3.412 -4.284,-4.285 -11.955,-3.412 -7.697,-1.719 -7.697,0.846 -2.565,2.566 -6.851,-0.846 -5.977,0.846 -3.412,0.873 v 0.846 l 2.565,2.566 2.565,1.719 2.565,2.539 2.565,2.566 12.802,0.873 11.981,0.846 6.851,3.412 4.259,3.438 5.131,8.543 5.131,9.416 7.697,5.105 8.543,3.439 2.565,0.846 1.72,2.566 -3.412,2.564 -4.285,0.846 -5.131,0.873 -7.697,-2.564 -5.131,-1.719 -7.697,-1.721 -7.696,-0.846 -5.131,-0.846 -5.132,-1.721 -5.131,-0.846 -2.565,1.693 v 3.438 l 3.438,5.131 3.412,1.693 13.674,1.719 9.416,0.848 8.543,5.131 13.675,7.697 13.675,13.674 v 3.438 l 3.438,5.133 1.693,5.131 1.719,5.977 3.412,5.131 -1.692,11.109 -2.565,4.285 -0.873,1.693 -0.847,2.564 -2.565,1.719 -4.258,-0.846 -6.852,-0.873 -4.284,3.439 -5.131,8.543 1.719,3.412 4.285,2.564 3.411,-0.846 1.72,-1.719 2.565,-2.566 2.566,-3.412 v -1.719 h 2.539 l 0.872,4.285 v 2.564 l 2.565,0.848 4.259,2.564 3.438,3.412 1.693,6.004 v 11.109 l 0.872,3.412 2.565,2.566 v 3.412 l 2.566,2.564 1.692,7.697 v 4.285 l -0.847,5.977 -3.412,6.852 1.693,5.977 4.285,0.848 0.846,7.695 0.873,4.285 -6.851,3.412 -5.131,-1.693 -4.285,5.133 -5.131,4.258 h -1.693 l -4.284,0.873 -5.132,2.564 -0.847,-4.283 -2.564,-1.721 -2.566,2.566 -1.719,4.285 -4.259,4.258 -2.565,4.285 5.978,2.564 h 2.565 l 2.566,0.848 0.846,0.873 0.873,2.564 2.565,0.848 7.671,1.719 2.565,-2.566 0.872,-3.438 -1.719,-2.566 5.131,-2.564 3.412,-0.848 1.72,0.848 3.412,3.438 2.565,1.693 0.873,2.564 -0.873,3.439 -3.412,3.412 -12.828,3.412 -4.258,-1.693 -4.285,-1.719 -2.566,2.564 4.285,1.721 3.412,2.564 4.259,2.566 4.284,3.412 7.697,5.131 7.697,5.977 4.284,2.566 v 5.979 l 0.847,6.004 2.565,6.824 3.412,1.719 3.412,4.258 h 5.131 l 2.565,4.285 -3.412,5.977 -5.131,-1.691 -0.846,-3.439 h -5.979 l -1.719,2.566 0.847,2.564 1.719,0.873 1.72,3.412 -4.285,4.285 -0.847,1.693 1.693,3.438 v 1.693 l 1.719,4.285 5.978,-0.848 3.412,1.693 4.285,2.566 3.412,4.285 13.7,0.846 4.259,-0.846 -1.693,-2.566 -2.565,-2.566 -6.004,-2.564 -1.692,-2.566 3.412,-2.564 6.85,2.564 3.412,1.719 2.566,2.566 2.565,4.258 3.411,-4.258 0.847,-1.719 4.285,-3.412 2.565,0.846 3.412,3.412 1.719,0.873 v 2.539 l -2.565,0.873 -5.131,0.846 -3.412,2.566 -3.438,3.412 h 13.701 l 10.262,0.873 h 14.521 l 1.719,-4.285 -4.284,-0.846 -5.132,-0.873 -1.719,-3.412 -3.412,-1.693 -4.259,-2.566 -2.565,-0.871 3.412,-5.133 5.131,1.721 2.566,0.846 1.692,3.438 13.7,6.824 6.824,0.848 7.697,4.285 h 5.978 l 12.828,2.564 5.131,0.846 2.565,3.439 3.439,3.412 h 7.67 l 0.873,-2.566 0.846,-3.412 0.847,-1.719 2.565,-4.285 3.438,-2.564 3.412,-4.26 6.851,-1.719 h 0.846 l 5.979,1.719 0.873,3.412 2.564,4.285 0.847,5.131 -3.411,4.26 v 3.438 l -3.439,3.412 -0.846,2.566 -0.847,3.412 0.847,2.564 3.412,2.566 7.696,1.719 h 5.978 l 9.416,-0.873 5.978,4.285 1.72,2.566 -0.847,5.131 -4.284,1.719 h -6.852 l -5.977,3.412 -3.412,3.412 h -4.285 l -2.565,-2.566 h -5.978 l -3.412,2.566 4.258,7.697 3.439,1.719 5.104,4.258 v 3.439 l -0.847,1.691 v 2.566 l 1.719,6.85 5.979,-1.719 v -4.258 l 0.846,-1.719 3.438,0.846 5.978,4.285 2.566,3.412 v 5.131 l 4.284,1.719 2.565,2.566 1.693,4.283 v 3.412 l -2.566,3.412 -3.411,-1.719 -2.565,-2.564 -2.566,-1.693 -5.978,-4.285 -5.131,-2.566 -4.285,-0.846 -7.696,-2.566 -5.979,-2.564 -9.416,-4.285 -11.955,-5.131 -10.262,-3.412 -4.285,-0.846 -0.846,2.564 5.131,3.412 13.674,4.285 13.675,6.824 11.136,5.131 7.67,4.285 11.135,6.824 8.544,6.004 6.85,6.824 2.566,5.131 8.543,3.438 1.692,4.26 7.697,3.412 5.131,-0.848 v -4.258 l 1.72,-1.719 2.565,1.719 1.719,0.846 5.132,0.848 3.411,3.412 5.132,6.004 7.696,10.262 5.979,1.693 3.412,3.438 10.262,-1.719 10.263,1.719 2.565,-6.004 3.412,-7.697 5.131,-3.412 4.285,-2.564 3.412,2.564 4.285,-0.846 5.977,4.258 3.412,-4.258 -0.846,-7.697 -1.72,-4.285 -3.412,-5.977 -3.411,-6.85 0.846,-4.26 2.565,-1.719 -1.719,-2.566 h -4.259 l -2.565,-2.564 1.72,-5.979 -0.873,-5.131 -1.693,-5.977 -3.438,-2.566 v -3.439 h 3.438 l 2.566,1.721 4.258,3.412 5.131,3.438 5.979,-2.564 0.872,-5.133 0.847,-4.283 2.565,-2.566 0.847,-5.131 v -3.412 l -3.412,-4.285 -5.131,-5.131 -5.132,-2.566 -4.258,-1.691 -2.565,1.691 -1.72,1.719 -2.565,2.566 -4.285,1.719 -1.692,-3.438 -1.72,-2.566 -3.412,-0.846 -4.284,0.846 -1.72,2.566 -2.565,3.438 -3.412,-2.564 -3.411,-3.439 -0.847,-2.564 3.411,-3.412 -3.411,-2.566 -5.132,-1.719 v -5.131 l 7.671,-5.105 3.438,-0.873 1.692,-4.258 6.004,-2.566 5.978,1.693 0.847,3.438 -1.692,2.566 -1.72,1.693 -1.719,2.564 v 5.133 l 1.719,4.283 1.72,1.693 5.131,-1.693 3.412,-1.719 1.719,-4.285 -0.873,-5.131 v -8.543 l 0.873,-2.566 4.259,-4.258 1.72,-0.873 4.258,-5.131 6.851,-6.824 4.284,-3.438 1.693,-5.979 4.285,-4.258 4.284,-3.439 5.978,-5.131 5.132,-3.412 2.565,-0.846 9.39,1.693 21.371,2.564 c 0,0 -0.836,6.004 6.004,3.439 6.84,-2.566 10.263,0.846 10.263,0.846 l 5.978,-1.719 5.978,-6.824 5.131,-1.719 11.982,-10.264 1.692,-3.412 2.565,-3.412 -1.692,-2.564 -1.72,-0.873 -1.719,-3.412 -0.847,-5.979 v -6.004 l 3.412,-2.564 2.565,-1.693 0.873,-2.564 -1.72,-1.721 -5.131,-9.389 -3.412,-6.004 -6.004,-5.979 -9.39,-12.828 -9.416,-5.131 -5.978,-0.846 -5.132,-1.721 -6.85,-0.846 -5.105,-2.564 -6.004,-3.412 -9.389,-7.697 -6.005,-0.873 -5.131,-5.979 -4.259,-8.543 -1.719,-7.695 v -6.852 l 4.285,-3.412 v -1.719 l 0.846,-5.131 0.847,-4.26 1.719,-7.695 3.412,-8.543 6.851,-11.982 8.543,-10.262 7.697,-8.545 11.108,-5.131 3.438,-4.285 6.004,-2.723 -2.592,-3.969 -6.771,-7.617 -11.849,-5.924 -5.079,-0.848 -4.231,4.232 -6.771,-4.232 -5.079,-2.539 -0.847,5.926 -3.385,5.078 -5.925,-1.693 -7.617,-3.385 -1.693,-6.771 4.232,-5.078 -4.232,-6.771 -3.386,-14.389 3.386,-8.463 9.311,-5.078 8.464,1.691 4.231,-2.539 3.386,-4.232 7.617,-4.23 -0.846,-4.232 -4.232,-3.385 -4.231,-3.387 -5.079,-2.539 1.693,-5.078 3.386,-5.924 -2.539,-3.387 -6.771,-0.846 -7.617,0.846 -9.311,-2.539 -6.771,-7.617 -5.925,-7.617 -5.079,-2.539 -3.861,-1.111 1.35,4.074 0.846,5.131 0.847,16.24 4.284,5.131 1.72,4.285 -2.565,2.564 -2.565,3.412 5.131,4.285 v 4.258 l -6.851,2.566 -5.131,3.438 -3.412,2.566 h -1.719 l 1.719,7.697 3.412,1.691 1.719,2.566 1.72,3.438 -1.72,4.26 -3.412,3.412 -3.438,-3.412 -2.566,-2.566 0.873,-3.412 -5.131,-3.412 -3.438,-0.873 h -6.824 l -3.438,-3.412 3.438,-3.41 1.692,-0.873 3.438,2.564 4.259,-0.846 5.131,-0.846 -2.565,-3.439 -2.565,-3.412 -6.824,-2.564 -3.438,-2.566 -2.565,-5.131 -4.258,0.846 -3.412,5.131 -0.873,7.697 -4.259,4.285 -3.438,1.719 -2.565,4.258 -5.131,7.697 h -4.259 l 1.693,-5.977 5.131,-6.852 2.565,-9.389 5.132,-6.004 3.438,-6.824 0.847,-5.131 1.72,-3.492 -3.889,-2.328 -8.464,-4.23 -5.078,-3.387 -1.692,1.693 -1.693,3.385 -11.85,1.693 -6.665,-1.904 v 0.027 l -3.438,8.543 -5.978,5.131 -4.284,9.389 -2.566,10.264 -3.412,9.416 -9.39,1.719 -4.284,-3.439 0.846,-3.412 4.285,-3.41 7.697,-1.721 v -5.131 l -2.566,-4.285 -2.565,-1.691 -1.719,-6.004 0.873,-5.979 -5.132,-5.131 -4.284,-4.258 -1.72,5.131 h -8.543 l -4.285,-0.873 -5.131,-1.693 -6.824,3.412 -5.978,-1.719 -3.438,-0.848 -3.412,-3.41 4.285,-2.566 6.824,-1.719 10.262,0.846 10.263,-0.846 3.412,-0.848 6.004,-0.873 3.412,-3.412 -3.412,-1.719 -2.565,-2.564 -4.285,-2.566 2.566,-3.412 1.719,-2.564 -1.719,-3.412 h -2.566 l 1.72,-3.412 -0.873,-4.285 -3.412,-4.285 -1.72,-3.412 -2.564,2.566 -5.979,4.283 -10.262,-0.871 -2.566,7.695 -7.696,0.873 -6.824,-1.719 -3.438,-3.412 2.566,-4.285 7.696,-8.543 3.438,-3.438 3.412,-4.26 5.131,-1.719 7.697,2.566 3.412,2.564 4.284,0.848 3.412,-4.26 v -6.85 l -0.847,-10.262 -4.284,-5.133 -4.285,-10.262 -6.824,-7.67 -5.978,-6.852 1.693,-6.85 4.284,-5.131 4.259,-0.848 5.131,0.848 1.72,2.564 3.411,2.566 5.132,3.438 4.285,-3.438 3.411,-2.566 -1.692,-5.977 1.692,-10.264 1.72,-4.258 4.285,-4.285 h 5.104 l 2.565,-1.719 0.873,-3.412 -0.873,-2.564 -1.692,-5.979 -2.566,-4.285 -4.284,4.285 -5.978,1.693 -8.543,7.697 -15.395,5.131 -5.977,2.564 -9.416,0.873 -5.979,-5.131 -4.284,-4.285 -2.565,-5.977 -1.72,-1.721 -6.824,2.566 -7.696,5.131 -2.566,-0.846 h -7.696 l -12.828,-6.004 -7.696,-2.566 -12.828,-0.846 -13.675,-3.412 -6.824,-3.412 -5.131,-4.285 -9.416,-3.412 -4.285,-3.438 -5.131,-5.979 -0.847,-4.285 z" /><path
     id="path5155"
     stroke="#000000"
     stroke-width="2.5392"
     d="m 1137.801,520.196 2.565,14.535 0.854,5.129 5.985,8.551 1.71,7.693 5.13,6.84 8.55,5.986 23.939,10.26 24.794,10.26 9.405,5.129 9.404,4.275 14.534,5.129 3.42,5.986 7.695,7.693 7.695,11.115 9.404,7.695 14.535,10.26 13.68,11.969 9.404,7.695 9.404,6.84 5.13,1.711 7.695,2.564 4.274,-0.855 0.855,-3.42 -1.71,-0.855 -4.275,-0.854 -9.404,-5.131 -3.42,-2.564 -3.42,-2.564 4.274,-2.566 4.275,-5.984 5.13,-4.275 6.84,-0.854 h 8.55 l 4.274,-5.131 9.405,-4.275 3.42,-3.42 1.71,0.855 2.564,2.564 7.695,1.711 h 3.42 l 2.564,0.855 3.42,1.709 2.565,-1.709 2.564,-2.566 6.84,-0.854 4.275,3.42 0.854,5.129 5.13,-0.855 v -3.42 l 4.275,-1.709 1.709,3.42 9.405,3.42 7.694,1.709 2.565,1.711 4.274,1.709 h 5.985 l 3.42,-2.564 5.13,-0.855 0.855,-1.709 -2.565,-0.855 -4.274,-0.855 -2.565,-0.854 -0.854,-5.131 h 5.984 l 2.564,-2.564 1.711,-1.711 -1.711,-2.564 v -3.42 l 3.42,-0.855 1.711,-5.984 -1.711,-3.42 -3.42,-0.855 -2.564,-2.564 -1.71,0.855 -2.565,-3.42 -2.564,-1.711 v -3.42 l 2.564,-4.273 v -2.566 l -2.564,-2.564 0.855,-2.564 4.274,2.564 3.42,2.564 8.55,-2.564 -1.71,-10.26 2.565,-5.129 -2.565,-6.84 -4.274,-6.84 -7.695,-7.695 -4.275,-6.84 -5.984,-4.275 -2.564,-4.275 1.709,-3.418 3.42,-4.275 -3.42,-3.42 -5.129,-1.711 -5.131,-5.129 -1.709,-3.42 -0.855,-4.275 -0.855,-3.42 -3.42,-7.695 -4.274,-0.854 -6.84,-5.131 -3.42,-5.129 -7.694,-6.84 -5.13,-1.711 -3.42,1.711 -0.855,3.42 2.565,2.564 2.564,1.709 -0.854,3.42 -2.565,1.711 v 4.275 l 1.71,4.273 v 5.986 l -1.71,-0.855 -5.13,1.709 h -7.694 l -2.565,-0.854 -2.564,-3.42 h -3.42 l -5.985,1.709 -1.71,4.275 -2.564,4.275 2.564,1.709 5.985,2.564 5.13,5.131 4.274,2.564 -0.854,4.275 -2.565,-4.275 -6.84,-1.709 -4.274,-0.855 -5.985,-3.42 -11.97,-2.566 -1.71,-2.564 h -3.42 l -1.71,2.564 -3.42,-1.709 -1.71,-3.42 -5.984,-5.984 v -3.42 l -4.275,-4.275 h -5.129 l -4.275,-5.984 -8.55,-2.564 -5.985,-5.131 -6.84,-8.549 -0.854,-4.275 -2.565,-6.84 -3.42,-5.131 -6.84,-1.709 -2.564,-3.42 -5.984,-8.551 -1.711,-2.564 -3.42,-2.564 -5.129,-2.564 -4.275,-1.711 -13.68,-1.709 -11.97,-3.42 h -3.42 l -3.42,1.709 -3.42,1.711 -1.71,1.709 -2.564,-0.855 -2.565,3.42 -4.274,-1.709 -5.13,2.564 v 1.711 l 4.274,4.273 1.71,3.42 -5.13,0.855 -3.42,-5.129 -0.854,-1.711 -3.42,-0.855 -7.695,0.855 -1.71,4.275 -5.13,3.42 v 4.275 l -5.13,4.273 -6.84,5.131 -0.854,5.129 0.854,5.986 3.42,5.129 0.855,3.42 5.13,0.855 2.564,1.709 2.565,3.42 v 7.695 l 4.274,1.711 1.71,0.854 v 5.986 l 5.13,2.564 5.13,-1.711 2.565,2.566 3.42,2.564 -3.42,1.709 -4.275,0.855 -1.71,5.129 -4.274,-0.854 -3.42,-1.711 -2.565,-0.855 -2.564,2.566 h 3.42 l 1.71,2.564 -1.71,2.564 v 4.275 l -5.13,-0.855 -4.275,-1.709 -0.854,-2.564 -0.855,-1.711 -5.13,-2.564 -5.984,-3.42 -4.275,-1.711 h -2.564 v 4.275 l 4.274,1.709 2.565,2.566 -4.275,5.129 -6.84,-1.709 -2.564,-3.42 v -3.42 l -0.855,-4.275 1.71,-3.42 4.275,-4.275 -1.71,-6.84 -4.275,1.711 -5.984,0.855 z" /><path
     id="path6126"
     stroke="#000000"
     stroke-width="2.5392"
     d="m 1427.638,455.218 -6.84,2.564 -4.274,3.42 v 1.711 l -2.565,0.855 -2.565,2.564 -0.854,0.855 -5.13,4.273 5.13,1.711 5.13,0.855 h 5.13 l 3.42,4.273 3.42,3.42 -1.71,2.566 -2.564,1.709 -0.855,0.855 -1.71,2.564 -2.565,3.42 0.855,6.84 h 1.71 l 4.274,0.855 1.711,5.984 0.854,1.711 -1.71,3.42 2.564,4.273 3.42,3.42 5.131,2.566 3.42,5.984 4.274,8.549 -1.71,4.275 -4.275,1.711 2.565,2.564 0.854,0.854 4.275,5.131 5.984,8.549 3.42,5.986 7.695,4.273 0.855,4.275 -1.711,4.275 1.711,2.564 1.709,7.695 1.711,2.564 v 7.695 l -0.855,6.84 h 3.42 l 2.564,-0.855 1.711,3.42 -0.855,4.275 -1.71,2.564 -5.13,6.84 -5.984,5.131 v 10.26 l -2.565,5.984 0.854,5.984 2.565,6.84 4.274,7.695 4.275,7.695 4.275,5.129 3.42,4.275 0.854,3.42 -2.565,2.564 -1.709,5.131 0.854,2.564 5.13,5.129 4.274,3.42 9.405,1.711 4.275,-1.711 -0.855,-2.564 -1.71,-5.984 -1.71,-7.695 v -8.549 l -1.71,-11.115 -0.854,-14.535 v -11.115 l 3.42,-11.969 0.854,-6.84 3.42,-5.131 6.84,-6.84 8.55,-5.129 2.564,-7.695 2.565,-12.824 6.84,-5.131 6.84,-7.693 5.984,-5.986 5.985,-5.129 5.984,-1.711 4.275,-7.693 4.274,-5.131 5.13,-2.564 2.565,-1.709 1.71,-2.566 v -4.273 l -1.71,-5.131 -3.42,-3.42 -4.275,-5.129 -1.71,-2.566 -1.71,-1.709 -2.564,-4.275 -1.71,-3.42 -2.565,-1.709 -5.13,-3.42 -0.854,-2.566 -9.405,1.711 -11.114,-2.564 -1.71,-0.855 -3.42,-0.855 -8.55,-0.855 -4.274,-4.273 v -5.986 -5.984 l -0.855,-5.129 -1.71,-3.42 -4.274,-1.711 h -8.551 l -2.564,-0.855 -2.565,2.566 -1.71,4.273 v 5.131 l -1.709,2.564 -2.565,-3.42 -5.13,-4.275 -1.71,-3.42 -0.854,-0.854 -4.275,-3.42 0.855,-4.275 -3.42,-5.131 -1.711,-0.854 -1.709,-2.566 -2.565,-0.854 -0.854,-1.711 -0.855,-1.709 -3.42,-2.566 h -3.42 l -0.855,1.711 1.711,2.564 3.42,1.711 v 2.564 l -4.275,1.709 -2.564,0.855 0.854,2.564 v 1.711 l -3.42,2.564 -1.71,1.711 -1.71,-5.131 -0.854,-4.275 -5.131,-3.42 -2.564,-3.42 z" /><path
     id="path7097"
     stroke="#000000"
     stroke-width="2.5392"
     d="m 1589.229,505.661 10.26,-12.824 7.695,-10.26 11.97,-9.404 12.824,-6.84 9.405,-4.275 11.114,-0.855 7.694,2.566 10.26,2.564 10.26,5.984 10.26,3.42 4.275,1.711 8.55,-0.855 4.274,-4.275 2.565,-6.84 -0.854,-5.984 -5.131,-5.984 -2.564,-3.42 -0.855,-5.131 -1.71,-3.42 -4.274,-4.275 -4.275,-3.42 -8.549,-3.42 -4.275,-2.564 c 0,0 -8.55,-1.709 -11.97,-1.709 -3.42,0 -14.534,-0.855 -14.534,-0.855 l -17.1,-0.855 -5.131,-1.709 -8.549,-2.566 -4.275,-5.129 -2.564,-2.564 -0.855,-4.275 -0.854,-4.275 -3.42,-3.42 -2.565,2.564 -2.564,1.711 -0.855,1.709 -2.564,0.855 -2.565,3.42 -0.854,3.42 4.274,2.564 4.274,-2.564 4.275,4.275 2.565,5.984 4.274,2.564 1.71,1.711 -1.71,2.564 -3.42,0.855 -1.71,0.855 -1.71,5.129 0.855,3.42 1.71,4.275 4.274,0.855 h 5.984 l 4.275,0.854 5.984,-0.854 1.711,-2.566 3.42,1.711 1.709,1.709 v 2.566 l -1.709,1.709 h -8.551 l -2.564,1.711 -3.42,-0.855 -3.42,3.42 -0.854,2.564 -0.855,2.564 v 2.566 l -1.71,-0.855 -3.42,-0.855 -2.564,-0.855 0.854,-3.42 v -3.42 l -1.71,-2.564 v 0 l -3.42,-1.709 h -5.13 l -0.854,2.564 -0.855,2.564 -3.42,1.711 -5.984,-3.42 -6.84,-3.42 -1.71,-1.711 h -2.565 l -3.42,0.855 -0.854,3.42 v 4.275 h -4.275 l -3.42,-1.711 -2.564,0.855 -1.71,2.564 -4.275,2.564 -2.564,5.131 0.854,3.42 h 5.13 l 2.565,2.564 -0.855,1.711 h -3.42 l -4.274,3.42 -2.565,2.564 v 3.42 l -2.564,0.855 -0.855,5.129 -0.854,4.275 1.71,3.42 h 6.84 l 2.564,-0.855 h 2.565 l 1.71,1.711 -1.71,3.42 -1.71,3.42 -0.855,0.854 3.42,4.275 h 4.275 l 8.55,2.564 h 6.84 l 3.42,-0.854 z" /><path
     id="path8068"
     stroke="#000000"
     stroke-width="2.5392"
     d="m 1160.885,508.227 4.274,2.564 2.565,3.42 -0.855,3.42 v 5.129 h -2.564 l -2.565,-2.564 -1.71,-4.275 -0.854,-3.42 z" /><path
     id="path9039"
     stroke="#000000"
     stroke-width="2.5392"
     d="m 1267.758,438.118 5.13,1.711 1.71,4.273 -0.854,2.566 -3.42,1.709 -4.275,-3.42 z" /><path
     id="path9041"
     stroke="#000000"
     stroke-width="2.5392"
     d="m 1288.277,403.919 -5.13,2.564 -2.564,2.566 4.274,1.709 3.42,-1.709 4.274,-2.566 2.565,-3.42 0.854,-1.709 -1.709,-2.564 h -2.565 l -0.854,0.854 z" /><path
     id="path9043"
     stroke="#000000"
     stroke-width="2.5392"
     d="m 1287.423,443.249 -4.275,4.273 2.564,6.84 3.42,1.711 1.711,1.709 v 4.275 l 3.42,4.275 2.564,5.129 3.42,2.566 4.274,-5.131 3.421,0.855 3.42,-5.131 0.854,-3.42 3.42,-1.709 h 4.274 5.13 l 2.565,-4.275 -2.565,-1.709 -0.854,-3.42 -0.855,-2.566 h -6.84 l -3.42,0.855 -5.129,-1.709 -0.855,-1.711 -2.565,-1.709 -0.854,2.564 v 3.42 l 0.854,2.564 v 3.42 l -1.71,0.855 -3.42,-3.42 h -4.274 z" /><path
     id="path9045"
     stroke="#000000"
     stroke-width="0.8464"
     d="m 1329.316,479.157 z" /><path
     id="path9047"
     stroke="#000000"
     stroke-width="2.5392"
     d="m 1324.186,490.272 5.13,-3.42 -0.855,-2.564 -2.564,-2.566 0.854,-1.709 h 4.275 l 1.71,1.709 4.274,0.855 -0.854,2.564 -1.71,1.711 -0.855,3.42 4.275,-0.855 1.71,2.564 0.854,0.855 v 2.564 l -4.274,2.566 -1.71,-1.711 -5.13,-0.855 -5.13,-1.709 z" /><path
     id="path9049"
     stroke="#000000"
     stroke-width="2.5392"
     d="m 1344.706,433.843 6.84,0.855 5.984,3.42 0.855,3.42 0.854,3.42 -1.71,2.564 -3.42,3.42 -1.71,2.566 -0.854,2.564 -2.565,2.564 -1.71,-3.42 v -2.564 l -1.71,-4.275 -0.854,-2.564 -3.42,-2.564 -1.71,-2.566 -3.42,-0.854 -1.71,-2.566 2.564,-0.854 2.565,-3.42 z" /><path
     id="path9051"
     stroke="#000000"
     stroke-width="2.5392"
     d="m 1470.387,441.538 h 5.13 l 0.854,3.42 v 3.42 l -1.709,2.564 h -2.565 l -3.42,-2.564 z" /><path
     id="path9053"
     stroke="#000000"
     stroke-width="2.5392"
     d="m 1508.862,464.622 -2.565,-4.273 h -3.42 l 0.854,4.273 3.42,3.42 3.42,5.131 0.855,3.42 0.855,4.275 1.709,3.42 4.275,1.709 5.13,1.711 4.274,3.42 7.695,2.564 4.274,-2.564 4.275,-6.84 -0.855,-3.42 -3.42,-2.566 -1.71,-3.42 -5.984,-1.709 -4.275,-0.855 -3.42,0.855 h -3.42 v 2.564 l -1.71,0.855 h -0.854 l -2.564,-0.855 -0.855,-2.564 -2.564,-3.42 z" /><path
     id="path9055"
     stroke="#000000"
     stroke-width="2.5392"
     d="m 1594.359,402.21 -4.274,0.854 -3.42,1.711 v 2.564 l -1.71,0.855 h -4.275 l -1.71,2.564 5.13,1.711 0.855,2.564 3.42,0.855 1.71,0.854 1.71,-0.854 0.854,-2.566 v -3.42 l 1.71,-1.709 1.71,-2.564 z" /><path
     id="path9057"
     stroke="#000000"
     stroke-width="2.5392"
     d="m 1544.77,461.202 -3.42,3.42 -1.71,0.855 -1.71,0.855 2.565,0.855 h 4.274 l 1.71,-2.566 z" /><path
     id="path9059"
     stroke="#000000"
     stroke-width="2.5392"
     d="m 1553.32,449.233 -1.71,5.129 1.71,2.566 3.42,-3.42 2.565,-1.711 v -2.564 z" /><path
     id="path9061"
     stroke="#000000"
     stroke-width="2.5392"
     d="m 1414.12,309.192 -2.419,4.232 -1.813,1.813 -1.209,2.42 0.604,2.418 1.209,1.813 4.231,0.605 1.814,-1.209 1.813,-2.418 -0.604,-1.814 1.813,-1.814 v -2.418 l -1.209,-1.209 h -1.209 z" /><path
     id="path9063"
     stroke="#000000"
     stroke-width="0.8464"
     d="m 1402.028,326.723 z" /><path
     id="path9065"
     stroke="#000000"
     stroke-width="2.5392"
     d="m 1399.61,332.77 -1.814,-3.627 1.814,-3.023 1.813,0.604 2.418,1.814 v 3.023 l 0.604,3.021 3.628,2.42 1.813,3.627 -1.813,1.813 -4.232,-4.836 -1.209,-1.209 z" /><path
     id="path9067"
     stroke="#000000"
     stroke-width="2.5392"
     d="m 1233.053,267.477 -1.512,3.023 -0.604,7.254 -0.604,8.465 -0.604,7.859 1.209,4.23 1.813,2.42 3.023,3.021 2.418,1.209 1.813,3.627 4.837,-1.209 v -1.209 l -1.814,-1.813 -1.813,-1.814 -1.813,-3.023 v 0.605 -7.254 l -0.604,-4.838 -1.813,-4.23 -1.814,-3.023 -0.604,-3.627 0.604,-1.814 1.814,-1.209 0.604,-1.209 -0.604,-1.814 -0.604,-0.604 -1.813,-2.418 z" /><path
     id="path9069"
     stroke="#000000"
     stroke-width="2.5392"
     d="m 1224.891,315.237 -5.44,2.42 -3.022,4.836 -0.605,3.627 1.814,1.814 1.209,2.418 3.022,1.813 3.022,-2.418 -0.604,-3.023 1.813,-2.418 1.814,-3.021 1.209,-1.814 1.209,-3.023 v -1.209 l -1.813,-1.209 z" /><path
     id="path9071"
     stroke="#000000"
     stroke-width="2.5392"
     d="m 1162.622,209.44 h 5.441 l 3.627,0.604 1.209,1.209 v 1.209 l -1.209,1.209 -3.022,1.211 -4.837,-0.605 -3.627,3.023 -2.418,-1.814 h -4.232 l 0.604,-3.023 2.419,-1.209 2.418,-0.604 z" /><path
     id="path9073"
     stroke="#000000"
     stroke-width="2.5392"
     d="m 1207.964,121.778 3.023,2.418 1.209,2.418 3.627,0.605 v 1.813 l -3.022,1.211 -7.255,-0.605 -1.813,0.605 -3.022,-0.605 v -2.418 l 1.813,-0.605 0.604,-1.813 1.209,-0.605 v -1.813 z" /><path
     id="path9075"
     stroke="#000000"
     stroke-width="2.5392"
     d="m 1223.682,-142.113 5.441,-0.303 5.441,4.232 3.022,5.441 5.44,6.045 7.255,6.65 4.837,3.023 1.813,2.418 2.419,1.209 1.813,2.418 4.232,1.814 1.813,1.209 0.604,3.021 -2.418,-0.604 -3.627,-0.605 -6.046,-1.813 -3.022,-1.814 -10.277,-6.045 -2.419,-4.232 -5.44,-7.254 -1.814,-1.814 -3.627,-1.209 -2.418,-2.418 -3.023,-3.627 -1.813,-1.814 z" /><path
     id="path9077"
     stroke="#000000"
     stroke-width="2.5392"
     d="m 1286.557,-56.568 v -4.232 h 3.022 l 0.604,2.42 0.604,4.23 3.628,1.814 -1.21,3.023 -2.418,1.813 -1.209,-2.418 -1.813,-2.418 z" /><path
     id="path9079"
     stroke="#000000"
     stroke-width="2.5392"
     d="m 1461.88,-49.312 3.627,-3.629 3.023,1.814 2.418,3.023 h 3.023 l 1.209,-3.023 v -3.023 l -1.209,-2.418 -1.21,-3.627 3.628,-1.209 1.209,3.023 1.813,3.021 1.209,4.232 0.604,7.254 -0.604,2.42 -2.418,5.439 -0.604,4.232 -2.418,1.209 -6.65,0.605 -6.046,-3.023 -1.813,-4.836 -0.604,-1.209 -1.21,-3.627 -0.604,-1.211 -1.209,-0.604 0.604,-2.418 z" /></g><path
   id="path9165"
   stroke="#000000"
   stroke-width="0.8464"
   d="m 240.30954,538.9675 z" /><g
   id="g5"
   style="fill:#ffeeaa"
   transform="translate(-165.62946,1277.3855)"><path
     id="path2221"
     stroke="#000000"
     stroke-width="0.8464"
     d="m 654.681,-644.818 6.216,1.561 4.179,-1.19 2.988,2.989 4.788,2.988 h 5.396 l 2.407,4.179 v 3.016 l 13.145,6.56 2.407,4.205 2.381,-3.597 3.015,-4.179 3.571,-4.206 1.798,-2.988 -1.189,-5.978 -2.989,-1.19 1.19,-3.016 2.988,-4.179 5.396,-0.608 2.988,1.799 1.799,4.205 0.582,1.19 1.799,1.799 0.607,4.179 v 2.988 l -2.406,2.407 0.608,5.396 2.406,1.772 2.989,2.407 4.179,6.586 h 10.184 l 13.172,1.189 8.966,2.989 6.586,2.407 4.18,1.189 1.217,4.18 -3.598,3.015 -2.988,2.381 -1.799,1.19 -1.799,2.406 -1.19,4.788 -1.798,5.369 0.581,3.015 2.407,1.19 2.989,-0.608 1.798,-2.38 3.598,-1.217 5.369,-1.19 4.787,0.608 1.217,2.989 5.369,7.775 5.396,6.586 2.989,4.18 h 5.396 l 3.571,-1.772 4.205,-0.608 4.179,1.19 5.396,2.988 6.586,3.598 h 4.788 l 8.384,-1.799 1.772,-2.988 1.799,-2.989 2.407,-2.407 2.38,-1.771 h 7.803 l 4.179,-2.407 2.989,-1.19 1.799,-1.19 2.38,-2.406 2.407,-3.598 1.19,-2.38 1.798,1.798 2.989,0.582 h 13.172 l 3.597,-1.189 5.37,-2.989 13.779,-4.787 8.967,-5.978 4.205,-3.598 2.381,-2.988 1.19,-6.004 4.787,-1.799 7.194,-1.19 0.608,-5.978 1.799,-3.598 1.19,-2.38 4.179,-1.799 5.978,-2.988 4.258,-4.259 0.106,-0.158 -5.925,-2.54 -4.232,-1.692 -2.539,-1.692 -3.385,-2.539 -5.079,-3.386 h -6.771 l -6.771,3.386 -4.231,4.231 -2.539,2.539 -3.386,0.847 -2.539,-0.847 -2.539,-2.539 -3.386,-1.692 -3.386,3.385 -2.539,3.386 -3.386,3.386 -8.464,5.078 -3.386,0.847 -2.539,3.386 -2.539,3.386 h -8.464 l -6.771,0.846 -5.924,5.078 h -18.621 l -11.003,-1.692 -7.617,-1.692 3.386,-1.693 6.771,-5.078 14.389,-1.692 h 10.157 l 9.31,-3.386 5.925,-3.386 5.925,0.847 4.231,-1.693 6.771,-2.539 5.078,-4.231 5.925,-5.925 6.771,-3.386 6.771,1.692 3.386,1.693 h 2.539 l 1.693,-5.078 7.617,-5.078 9.311,-1.693 5.925,2.539 1.692,3.386 6.771,3.386 5.079,-0.847 h 3.386 l 0.846,-4.231 4.232,-1.693 5.925,4.232 9.31,1.692 h 19.467 l 3.518,0.952 0.159,-1.534 -0.873,-5.131 -5.978,-6.851 -5.131,-7.697 -0.847,-5.978 -1.719,-8.543 -2.566,-6.004 -2.565,-14.521 -0.846,-21.371 1.719,-23.091 v -14.547 l 2.565,-11.109 4.259,-12.828 2.565,-8.543 0.847,-5.978 6.004,-8.569 11.108,-6.824 4.285,-4.285 1.692,-5.978 3.438,-4.285 2.565,-5.131 0.847,-11.108 2.565,-4.259 2.565,-2.565 v -3.438 l 5.132,-19.652 4.258,-11.982 5.132,-13.674 7.696,-11.109 3.438,-8.543 10.236,-12.828 6.004,-7.697 1.693,-2.566 1.719,-1.719 4.285,1.719 4.258,-2.565 6.005,-6.851 2.564,-4.258 2.539,-6.85 v -17.086 -6.851 l -1.692,-11.109 -2.565,-8.569 2.565,-5.978 2.565,-3.412 -3.412,-4.285 -2.564,-1.692 -0.873,-17.113 4.284,-30.787 4.259,-7.697 7.696,-6.824 0.873,-3.412 -1.72,-5.131 -5.131,-6.004 -5.131,-13.674 -7.697,-13.675 -6.823,-6.85 -8.57,-11.956 -3.412,-12.828 -0.846,-12.828 1.692,-8.543 2.565,-10.262 5.132,-7.697 11.981,-16.24 7.696,-13.674 13.675,-12.828 17.959,-13.674 16.24,-10.262 2.565,-3.439 -1.719,-3.412 -5.978,-3.412 -7.697,-1.719 -11.108,5.131 -6.851,2.565 -30.761,22.218 -30.787,24.81 -23.091,16.24 -11.955,4.285 -17.113,7.697 -8.543,2.566 -10.263,1.692 -7.696,2.566 h -5.978 l -19.679,-2.566 -16.24,-2.565 -7.696,-1.693 -4.259,-1.719 -5.131,1.719 -3.438,3.412 -11.109,11.109 -5.978,12.828 -11.108,12.828 -14.547,17.086 -4.285,3.438 -8.543,5.978 -5.978,11.109 -13.675,25.656 -15.394,23.937 -5.978,11.981 -8.569,12.802 -6.824,11.981 -11.981,15.394 -12.828,15.394 -10.263,12.828 -7.671,8.543 -8.569,5.131 -9.39,8.543 -7.696,4.285 -6.851,5.131 -4.259,5.978 -10.262,5.131 -19.679,3.412 -7.697,1.719 -11.955,0.847 -10.263,1.719 h -14.547 -13.675 l -14.521,-5.131 -13.7,-5.978 -11.956,-5.131 -12.828,-2.565 -6.85,-0.873 -4.259,0.873 -4.285,3.412 -13.674,7.696 -6.851,5.978 -17.959,6.85 -14.521,3.412 h -11.981 l -15.367,-0.846 -11.135,-6.004 -15.394,-10.262 -4.259,-1.693 -5.131,0.847 -5.131,1.719 -6.851,7.697 -11.109,11.108 -11.108,10.263 -4.285,8.543 -8.543,5.131 -5.131,4.285 -13.675,17.086 -9.416,11.982 -17.959,17.086 -5.978,7.697 -10.263,17.959 -11.108,17.959 -11.109,16.24 -11.108,23.938 -6.851,16.239 -1.72,10.263 -3.412,17.959 -2.565,10.263 3.386,1.481 0.608,3.623 1.825,1.799 v 3.042 3.015 l 1.799,1.825 1.824,-2.434 1.825,-1.798 -1.825,-7.883 0.608,-5.422 2.407,-1.217 1.825,-1.217 v -9.071 l 0.608,-10.263 1.798,-4.232 1.825,-1.217 1.799,0.608 1.825,1.217 3.015,3.624 4.841,5.448 1.825,3.624 -0.608,3.623 0.608,9.072 0.608,5.422 2.406,4.841 3.016,3.624 3.042,6.665 1.798,4.231 3.016,6.031 1.217,3.041 3.016,2.407 5.448,4.231 h 4.84 l 1.217,-3.623 3.624,-3.624 3.015,-1.825 1.825,-1.189 5.422,-3.65 3.65,-1.19 h 1.799 l 1.217,1.19 4.231,1.825 4.232,4.231 1.217,1.825 3.015,3.016 4.232,-0.608 3.015,-4.232 1.825,-2.406 -0.608,-6.058 -1.825,-3.623 -1.798,-3.624 -4.232,-0.608 h -7.273 l -1.19,-1.825 1.19,-3.623 h 1.217 l 1.217,-1.799 1.217,-4.84 1.189,-3.042 0.608,-3.624 1.825,-1.798 3.016,-2.434 v -3.624 l -2.407,-3.015 -3.042,-2.434 -2.406,-4.813 -0.608,-3.65 0.608,-2.407 1.217,-1.216 1.798,-0.608 3.624,-4.232 1.825,-3.624 7.855,-2.406 h 4.231 l 0.608,-2.434 4.232,-1.19 8.464,-0.608 3.623,-1.824 2.407,-3.016 1.825,-3.624 4.84,-3.623 6.639,-7.273 2.434,-3.624 0.608,-3.016 -0.608,-4.231 0.608,-3.016 0.582,-5.448 2.434,-6.639 5.448,-9.072 3.016,-4.232 0.608,-3.623 0.607,-4.841 2.407,-5.448 4.232,-3.623 h 6.057 3.624 4.84 l 4.813,2.406 10.289,-5.422 4.84,-3.042 9.072,-1.799 5.423,-2.433 12.695,-1.19 h 12.114 l 15.711,-1.825 7.855,-2.407 7.855,-7.882 1.217,-5.422 3.623,-2.434 1.217,-2.407 6.639,-0.608 4.232,0.608 1.217,1.217 0.608,1.19 1.189,1.825 6.058,2.407 v -1.798 l 3.015,-3.042 3.624,-3.015 3.649,-0.608 6.031,-0.608 1.217,-3.016 1.798,-2.407 3.042,-1.825 2.407,-2.407 h 3.623 l 1.825,2.407 v 1.825 l 3.624,4.232 -1.217,3.624 8.464,0.608 5.448,1.798 h 1.825 l 1.799,1.825 2.433,1.217 3.624,0.582 2.407,-1.799 4.231,-2.434 1.217,-0.582 6.639,1.19 4.232,1.217 1.217,1.217 4.231,2.407 12.088,0.608 6.057,0.608 10.871,-2.433 11.479,-1.799 3.65,-3.015 h 5.422 l 4.232,-3.042 h 9.68 l 9.681,0.608 10.871,2.434 9.681,-1.217 6.03,-1.825 3.65,-0.608 6.03,-2.407 7.247,-3.015 5.448,-6.057 6.058,-3.015 1.798,0.608 2.434,1.798 1.19,3.624 6.665,3.042 4.841,0.608 h 3.623 l 9.072,-3.65 1.19,-3.624 1.217,-3.624 1.217,-3.015 0.608,-1.825 1.189,-3.015 1.825,-3.015 1.217,0.608 0.608,1.798 1.19,3.624 v 5.449 l -1.19,4.232 -3.65,3.016 -0.581,2.433 v 3.015 l -1.217,2.407 -4.232,1.216 -1.217,0.608 -4.231,1.217 -6.03,1.19 -4.232,1.825 -2.434,3.015 -2.406,2.434 -7.855,6.639 -6.666,3.015 -1.798,3.042 -2.434,3.623 -3.016,6.031 -3.623,6.057 -4.841,4.232 -3.015,1.824 -2.434,0.582 -2.407,0.608 -2.433,1.825 1.216,2.407 -1.216,3.623 -3.624,1.217 -2.407,3.016 0.608,3.649 1.19,4.232 1.217,1.799 -0.608,3.623 -3.016,-0.608 -3.623,-3.015 -2.434,-1.217 -3.016,-6.031 -1.824,-4.84 v -4.232 -5.448 l 0.608,-3.623 v -6.031 l -1.799,-3.649 v -3.624 l -0.608,-3.015 -2.434,-2.407 h -6.639 l -4.232,-1.217 -2.406,-4.231 -2.434,-3.624 -9.072,-0.608 -4.231,-1.217 -6.64,1.217 -8.464,1.217 -7.247,0.582 -6.665,1.825 h -3.016 -6.665 l -7.247,1.216 -6.03,3.016 -6.665,4.232 -1.799,4.231 -3.65,4.232 -2.406,4.231 -3.624,7.247 -6.665,8.464 -5.422,6.665 -4.841,2.407 -0.608,4.232 -4.84,8.464 -4.232,6.665 0.608,2.406 4.232,3.016 6.639,4.84 1.825,3.016 1.824,6.665 v 6.031 l -3.041,4.231 -3.016,3.042 -1.825,4.231 -3.015,7.247 -3.624,3.016 -2.407,3.042 1.799,3.623 2.434,3.016 1.19,5.448 v 1.19 3.65 7.247 l 2.433,1.217 7.248,4.813 2.406,2.434 1.825,2.406 1.825,4.232 v 1.825 l -0.608,7.247 -4.231,3.016 v 2.433 l -2.434,2.407 -1.19,1.825 -3.042,1.798 -3.611,3.039 -4.841,4.232 -4.84,4.84 -5.422,4.232 v 4.231 l 0.608,3.016 2.406,2.406 1.825,3.624 c 0,0 2.396,-1.194 4.813,-1.799 2.419,-0.604 3.042,-2.434 3.042,-2.434 l 1.799,-3.015 2.433,-0.608 3.016,0.608 6.057,-6.03 1.19,-1.217 3.042,-1.217 6.03,1.217 3.016,-2.434 h 3.649 l 2.407,-1.19 3.016,3.624 1.217,3.015 3.015,1.825 z" /><path
     id="path9145"
     stroke="#000000"
     stroke-width="2.5392"
     d="m 1226.462,-993.372 15.561,0.598 4.189,-1.795 6.584,-2.992 4.189,-1.795 7.182,-1.197 h 11.371 6.583 l 2.993,-0.598 5.386,-1.795 1.796,-3.591 2.394,-1.197 1.796,1.795 4.787,1.197 5.387,1.197 4.189,2.992 1.197,1.197 0.598,2.992 0.6,5.985 v 2.993 1.795 l -1.796,2.992 -1.197,2.394 -1.196,5.386 -1.796,1.197 -1.197,-5.985 1.197,-1.795 v -2.394 l -2.394,-2.394 -1.197,-2.992 -2.395,0.598 -3.59,1.795 -2.395,-1.795 -2.394,-1.197 -5.387,1.795 -10.175,1.795 -2.394,1.795 -1.196,1.795 h -1.796 l -2.992,2.394 1.795,2.993 1.796,1.795 1.795,4.189 0.599,6.583 -2.992,3.591 -3.591,2.993 -1.197,2.394 -2.992,1.197 h -5.984 l -3.592,-2.394 -1.795,-1.197 h -5.387 l -8.379,0.599 -4.189,2.394 -13.765,-2.394 -4.788,-1.197 -4.189,-0.599 -4.788,-2.394 -3.591,-3.591 -2.394,-3.591 1.196,-2.992 4.189,-5.386 5.985,-4.788 4.189,-4.189 1.796,-2.992 3.59,-2.993 z" /><path
     id="path9147"
     stroke="#000000"
     stroke-width="2.5392"
     d="m 1219.879,-1030.478 1.796,-2.992 1.795,0.599 0.599,1.795 v 1.795 l -0.599,1.197 -3.591,1.197 -2.992,-1.795 z" /><path
     id="path9149"
     stroke="#000000"
     stroke-width="2.5392"
     d="m 1191.151,-968.236 5.387,4.189 1.197,4.189 3.591,4.788 3.591,2.993 0.599,1.795 -3.591,1.197 -1.796,-2.992 -4.788,-5.386 -3.591,-2.993 -0.599,-1.795 -2.992,-2.394 -1.197,-1.795 1.197,-1.795 h 2.992 z" /><path
     id="path9151"
     stroke="#000000"
     stroke-width="2.5392"
     d="m 1234.841,-938.91 -2.992,-2.992 4.788,-2.993 1.796,-2.992 2.394,-1.197 8.978,-0.598 8.379,0.598 v 1.795 h 5.386 l 2.992,0.599 -1.795,2.394 h -3.591 -2.395 l -4.189,1.197 -2.992,2.394 -1.795,2.394 -5.387,-0.599 -5.984,0.599 z" /><path
     id="path9153"
     stroke="#000000"
     stroke-width="2.5392"
     d="m 1246.212,-929.932 4.189,-2.993 2.992,0.599 0.6,1.795 v 2.992 l -2.395,1.197 -2.394,0.599 -4.189,0.598 -2.395,-1.197 -2.394,-0.599 0.599,-1.795 h 1.795 z" /><path
     id="path9155"
     stroke="#000000"
     stroke-width="2.5392"
     d="m 1120.53,-1120.251 -3.591,-1.795 -1.795,1.795 2.394,2.992 1.795,1.796 2.395,-0.599 1.197,-1.197 0.598,-2.394 z" /><path
     id="path9157"
     stroke="#000000"
     stroke-width="2.5392"
     d="m 1128.909,-1111.872 -3.591,1.197 0.599,1.795 2.394,2.394 2.395,0.599 z" /><path
     id="path9167"
     stroke="#000000"
     stroke-width="2.5392"
     d="m 399.356,-735.425 1.197,5.984 2.992,0.599 0.599,1.795 1.197,1.197 v 2.395 l -0.599,1.196 -3.591,1.197 -5.985,-1.197 -3.591,5.387 -2.394,1.795 h -1.796 l -1.795,1.796 v 2.992 l -1.197,4.189 -0.599,1.197 2.394,2.992 2.993,-1.197 3.591,-1.795 2.394,-1.197 1.796,-2.992 1.795,-1.197 1.796,2.992 2.394,1.796 1.796,2.394 v 1.796 l -1.796,2.394 -1.795,1.796 v 1.197 l -0.599,5.984 2.992,1.796 v 1.795 l 3.591,1.197 4.189,-2.395 1.796,-2.992 -0.599,-5.386 -0.599,-1.796 0.599,-1.796 1.795,0.599 0.599,2.993 1.796,4.189 4.788,7.182 2.394,3.591 1.795,4.189 2.395,5.984 1.197,3.591 5.984,1.796 4.788,-0.599 5.386,-4.189 7.183,-0.599 4.189,1.796 4.787,-0.599 4.189,-2.394 5.387,-1.796 h 1.196 l 1.197,-2.394 -1.197,-1.197 3.591,-8.379 3.592,-2.992 4.189,-3.591 5.984,-5.387 8.379,-4.189 1.197,-3.591 v -7.182 -3.591 l 0.598,-4.189 1.796,-4.189 2.394,-1.796 2.993,-2.394 0.598,-3.591 1.197,-0.599 3.591,-0.599 1.197,1.796 v 2.394 l 1.795,1.197 1.197,-2.992 -1.197,-3.592 -1.795,-3.591 v -2.992 l -4.788,-2.992 -1.197,-4.189 -2.394,-6.583 -1.795,-4.788 -0.599,-12.568 -1.796,-2.992 v -3.591 l 2.395,-2.993 1.196,-4.189 2.992,-3.591 2.395,-0.598 2.992,2.992 2.992,1.795 2.993,2.395 0.598,2.992 -2.394,2.992 1.197,2.992 3.591,-1.196 0.599,-2.993 0.599,-6.583 2.992,-4.788 1.197,-2.992 1.795,-4.788 3.591,-7.78 3.591,-4.189 -2.394,-7.182 -1.197,-6.583 -1.197,-5.387 -4.188,-1.196 -3.592,1.196 -5.386,2.992 -8.379,5.387 -1.796,1.796 -5.984,5.386 v 4.788 l -3.591,4.189 -2.395,2.394 -10.772,1.197 -5.387,0.599 -5.386,3.591 -8.379,-0.599 h -9.575 l -6.584,-0.599 -2.394,-2.992 -1.796,0.599 -0.599,2.394 -2.394,0.599 -4.788,5.985 1.197,3.591 v 5.386 l -4.788,4.189 2.395,2.395 -4.189,1.196 1.795,5.387 0.599,4.788 -2.394,-1.197 -2.993,-2.394 -2.992,2.394 -2.992,2.395 -0.599,2.992 1.796,1.196 5.386,-0.598 0.599,2.394 h 2.992 l 3.591,3.591 1.197,1.796 1.796,1.196 v 3.591 l -1.796,0.599 -2.992,1.197 -2.992,2.394 -7.183,-0.599 -4.188,0.599 -2.993,-1.196 -4.189,-1.197 -5.984,0.599 0.599,1.795 -0.599,1.796 -1.796,1.197 -2.394,0.598 -2.394,-0.598 -2.395,1.196 v 2.991 z" /><path
     id="path9171"
     stroke="#000000"
     stroke-width="2.5392"
     d="m 589.076,-791.682 -4.788,2.394 -0.599,4.788 3.591,1.795 4.788,4.189 2.394,1.796 1.197,3.591 1.197,3.591 3.591,2.992 3.591,-1.795 -1.197,-3.591 -2.992,-4.189 -0.599,-1.796 -1.196,-2.992 -1.796,-1.796 -2.992,-4.188 z" /></g><g
   id="g4"
   style="fill:#baffaa;stroke:#000000"
   transform="translate(-165.62946,1277.3855)"><path
     id="path11154"
     stroke="#000000"
     stroke-width="0.8464"
     d="m 217.947,-158.359 0.344,5.053 -1.799,18.752 -1.217,12.695 -4.231,12.697 -4.232,12.695 -3.624,6.639 -8.463,24.783 -4.232,7.273 -7.247,19.943 -12.114,24.783 -4.231,6.057 v 3.623 l 6.057,3.625 6.057,2.406 6.64,4.232 5.448,3.648 8.464,5.424 6.03,4.84 5.449,5.449 17.535,16.928 9.072,7.246 2.407,5.449 4.84,-2.434 1.825,-4.232 1.799,-3.016 -4.84,-4.84 -4.841,-6.031 -4.813,-7.273 -4.232,-3.623 -1.217,-3.016 3.016,-1.217 0.608,-3.623 -6.639,-6.639 -1.825,-7.273 1.217,-4.814 2.407,-6.057 3.623,-3.623 4.232,-4.84 4.231,-4.232 h 4.232 l 6.057,1.824 3.016,3.625 1.216,4.84 -1.824,3.016 -3.624,1.215 -1.799,1.191 -4.231,2.434 1.799,3.623 4.84,4.232 3.624,4.84 2.433,3.016 1.799,4.232 5.448,7.246 6.031,7.855 3.649,4.232 3.016,6.666 5.448,10.262 4.232,4.84 6.03,12.695 3.624,1.217 h 2.433 v -2.406 l 1.19,-1.217 h 3.042 l 3.015,2.406 1.217,1.217 4.232,2.408 2.406,3.041 3.624,-0.609 3.624,-1.824 1.216,-2.406 1.825,-0.609 3.016,0.609 2.407,3.016 1.824,1.215 5.449,4.232 4.84,3.625 4.232,3.623 4.813,7.246 3.042,4.842 0.608,12.086 3.015,6.057 1.217,15.104 3.016,9.072 0.608,10.896 -3.042,12.088 -3.016,4.84 -0.608,8.465 v 8.463 7.248 l -1.798,9.68 0.608,12.697 v 5.422 l 3.015,11.506 0.608,4.23 -0.608,6.639 0.608,7.248 -1.217,5.449 -1.825,6.057 0.608,4.84 1.825,1.799 v 3.016 l -4.231,3.041 -2.434,3.016 -3.624,9.072 -1.189,4.84 -1.825,6.639 -4.232,7.248 -1.824,11.504 -2.407,9.072 -1.217,6.641 v 7.855 l 2.434,4.84 1.798,6.639 1.825,8.463 0.608,3.65 v 6.031 l -1.217,3.016 -3.015,8.463 v 4.232 l -3.624,6.664 -1.825,4.842 -3.015,4.23 -3.042,6.031 h 3.042 5.422 l 7.882,3.65 3.016,1.189 7.855,3.625 4.84,3.648 9.681,3.625 7.855,-1.217 6.639,-3.016 1.217,-2.434 4.232,-1.799 6.03,2.406 4.231,3.625 2.434,1.824 3.624,0.609 6.057,0.607 2.407,1.189 4.231,-3.014 3.624,-1.217 8.464,1.217 9.681,2.406 5.448,2.434 4.231,1.217 10.871,6.639 7.855,7.246 3.016,3.043 7.273,1.189 4.84,0.609 11.479,-1.799 3.623,1.189 7.247,1.826 6.058,1.799 7.855,4.23 9.072,6.057 9.681,3.625 2.406,1.824 0.608,3.016 -2.434,1.217 -1.189,1.799 1.189,6.664 1.217,4.232 2.434,5.422 8.464,5.449 4.232,1.217 2.406,-2.434 -0.608,-1.799 3.624,1.799 2.434,1.824 4.84,1.217 1.19,1.799 4.231,1.826 6.058,-3.625 3.015,-4.23 4.232,-4.842 v -2.434 l 1.825,-5.422 3.015,-2.434 1.825,-1.189 3.016,0.582 2.406,0.607 2.434,0.609 2.407,3.623 h 1.825 l 9.071,0.609 3.624,-2.408 7.855,-2.434 3.016,-4.84 6.057,-7.855 4.84,-5.422 v 1.189 l 8.464,-1.189 5.423,0.582 4.84,-2.406 1.825,-5.449 0.608,-4.232 -0.608,-5.422 5.422,-3.041 1.825,-3.016 2.407,-4.232 6.057,-4.84 3.016,-1.217 2.433,-0.582 1.799,1.799 5.448,4.232 3.016,1.217 4.232,1.799 v 4.23 l -2.407,3.043 h -4.232 l -2.433,-2.434 -4.814,-1.799 -4.231,-0.609 h -3.042 l -3.623,3.016 -2.407,3.623 1.19,2.434 5.448,2.408 2.434,1.217 5.422,3.014 2.434,4.842 2.407,3.014 -1.799,1.826 -5.449,1.799 -1.216,1.824 1.216,2.406 1.799,4.232 3.65,1.826 3.015,-1.217 h 6.64 l 2.433,0.607 3.624,3.623 0.608,3.625 5.422,5.447 c 0,0 4.841,4.848 9.072,1.826 4.232,-3.023 4.841,-2.434 4.841,-2.434 l 2.433,-6.031 v -3.623 l -2.433,-6.666 -3.624,-2.406 -0.608,-4.232 -0.608,-4.23 h -6.639 l -4.232,-5.449 0.608,-3.623 2.407,-4.232 h 3.016 l 2.433,1.217 2.407,2.406 6.665,3.016 h 4.841 l 1.798,-2.406 -1.216,-6.059 -7.247,-9.652 v -4.232 l 1.216,-3.65 -1.824,-4.232 -1.19,-4.813 1.19,-12.697 v -5.447 l -1.19,-3.625 -8.464,-2.434 h -5.449 l -4.231,-2.406 -6.665,-5.449 -6.031,-3.623 -1.824,-3.016 -4.232,-3.041 -1.19,-6.031 -2.433,-5.447 -3.016,-4.84 -6.665,-4.232 -2.407,0.607 -2.407,4.842 -2.433,1.215 -5.449,2.408 -5.422,1.824 -7.855,3.016 -2.434,3.623 -7.247,-0.607 -5.448,-2.408 -9.072,-2.432 -6.639,-3.016 1.216,-6.639 3.016,-2.434 6.639,2.434 2.434,-3.65 4.84,-3.016 5.423,0.609 6.057,1.215 6.03,-5.447 6.058,-6.057 6.057,-2.408 1.799,-7.246 -0.608,-3.625 -3.016,-2.432 -2.407,-3.016 -3.649,-3.016 -3.016,-6.666 -5.448,-2.406 -6.03,-1.217 -4.232,-0.607 1.217,-5.449 2.407,-1.799 3.623,2.406 4.841,-1.189 3.015,3.016 2.434,0.607 0.608,-3.623 -2.434,-3.041 0.608,-0.609 -5.448,-6.639 0.608,-3.623 0.608,-2.434 1.824,-1.799 4.814,-1.217 4.84,0.609 1.217,-1.217 v -3.625 l 6.639,-3.014 8.464,-6.059 3.042,-3.014 7.855,-0.609 4.231,1.217 v 2.406 l -1.216,1.826 -1.217,2.406 1.824,3.623 2.407,1.826 6.665,1.824 3.624,-3.65 6.639,-5.422 6.058,-2.434 3.015,-3.623 1.217,-5.449 v -3.623 l -4.84,-1.799 -6.031,2.408 -3.649,-0.609 -1.19,-1.799 2.407,-4.23 3.623,-2.434 h 9.072 l 1.825,-2.408 6.639,-2.434 2.434,1.217 4.813,-0.607 5.449,-2.406 4.231,-1.217 6.057,-1.217 6.03,-5.422 2.434,-4.232 3.016,-3.623 v -4.232 l -3.624,-4.232 -4.84,-1.824 -3.624,-1.217 -13.912,-0.609 -9.072,-1.189 -9.654,-0.609 -6.665,-0.607 -4.84,-1.824 -1.19,-2.408 -1.825,-7.246 1.825,-6.666 4.231,-6.031 0.582,-6.057 -1.19,-3.623 -3.041,-6.057 -3.624,-3.625 -3.623,-3.014 -2.407,-0.609 v -3.623 l 4.84,-2.406 2.407,-4.842 v -5.447 l -1.825,-7.248 -4.813,-3.623 -3.042,-4.84 1.217,-6.666 2.407,-2.406 2.433,-2.434 4.841,0.607 h 6.03 l 4.232,-3.016 2.433,-1.824 7.247,-5.422 5.449,-1.826 v -3.623 l -2.434,-5.447 -3.623,-4.842 -7.089,-7.326 -4.285,-6.004 -5.131,-3.412 h -3.412 l -2.565,1.719 -2.565,4.26 -4.285,0.873 -5.131,-2.566 -4.259,0.846 -12.828,0.848 h -8.569 v -4.26 -3.438 l 3.438,-0.846 h 11.955 l 7.696,-0.848 5.132,-1.719 3.412,-2.566 -1.693,-1.719 -3.412,-2.564 -3.438,-4.26 3.438,-2.564 5.979,0.846 3.411,3.438 2.566,2.541 0.846,2.564 6.851,3.439 h 4.285 l 4.258,-3.439 1.72,-3.412 2.565,-2.564 6.824,0.871 4.284,0.848 7.697,4.258 8.543,-0.846 0.873,-4.26 v -2.561 l -3.438,-5.131 v -6.004 l 4.285,-2.566 5.978,-1.693 h 2.565 l -0.847,-5.131 5.132,-2.564 4.258,-5.133 3.438,-7.695 10.263,-6.852 9.39,-5.131 6.851,-2.566 -0.873,-3.41 -5.104,-1.721 -11.982,0.873 h -16.239 l -5.979,-2.564 -1.719,-5.133 v -5.977 l -0.847,-4.285 -6.851,-7.697 -5.978,-2.564 -3.438,-2.566 -1.692,-5.977 -0.873,-4.285 -5.978,-3.412 -9.39,-0.848 -7.696,-0.871 -15.394,-0.848 h -6.005 l -1.692,-3.412 5.978,-2.564 10.263,-1.721 9.416,-1.719 h 12.802 l 5.131,1.719 1.349,0.186 0.45,-3.438 0.608,-4.18 2.38,-2.988 0.608,-5.396 -0.608,-4.787 -1.189,-2.406 -4.788,-4.18 -4.787,-2.988 -6.586,-0.609 -2.989,-0.582 -4.787,2.99 -2.38,-0.609 -3.598,-0.582 -1.799,-6.004 2.989,-3.598 3.597,-3.57 2.381,-2.988 1.799,-2.406 0.608,-4.18 -2.407,-2.988 -3.57,-1.217 -4.788,-0.582 -3.015,1.799 -5.369,3.57 -7.194,1.217 -5.369,-4.205 -1.217,-5.979 -2.381,-8.992 -0.608,-4.787 -3.597,-4.18 -2.381,-2.381 -2.988,-0.607 h -5.396 l -4.787,-2.408 1.19,-4.178 4.787,-2.381 -1.19,-5.396 1.19,-4.205 -1.771,-4.787 -4.206,-4.18 -4.179,-5.395 -5.396,-7.777 -4.788,-6.586 -0.608,-3.57 -0.581,-3.598 -0.608,-1.797 -1.799,-2.99 -4.787,-2.988 -5.978,-2.988 -2.381,1.771 -9.602,1.217 -2.988,-2.988 -5.369,-1.799 -7.194,-1.799 -4.18,-1.799 -1.189,-3.598 -1.217,-3.596 -5.369,-4.18 -3.598,2.381 -4.205,3.598 -2.381,4.205 -2.988,3.57 -1.19,7.803 -4.787,5.977 -8.993,9.576 -7.776,8.965 -7.194,2.99 -1.771,-1.191 -2.407,-2.379 -6.586,3.57 -1.799,6.004 -3.597,4.18 -2.381,1.189 -4.787,1.217 -2.407,5.369 -2.988,-0.582 -1.799,-2.406 -3.571,2.406 -0.607,1.771 -1.799,3.598 -5.978,-1.189 -1.799,-4.789 -3.597,-2.406 -2.381,1.217 -2.989,-2.988 -3.015,-1.799 -2.381,-2.988 2.989,-6.586 2.988,-7.195 v -2.988 -5.396 l -2.988,-2.379 -8.385,-1.799 -9.575,-2.408 -7.775,0.609 -4.787,-0.609 -2.381,3.016 -0.608,2.988 -4.787,2.99 -2.989,1.799 -0.608,7.166 -1.798,2.99 -0.582,4.205 -3.598,2.381 -3.597,1.799 -4.787,3.596 1.798,3.598 4.788,1.799 0.608,2.381 1.189,1.799 0.608,3.596 -4.205,0.582 -7.776,-0.582 -4.179,1.191 -6.004,1.799 -6.586,-1.191 -0.582,-1.217 -6.004,-2.988 -1.19,-2.988 -0.582,-5.396 -1.799,-4.787 -7.194,-5.979 -7.775,-2.379 -11.982,-0.609 -4.787,1.191 -2.381,1.797 -5.978,1.191 -4.787,-2.381 -2.988,-5.396 -1.799,-2.379 -2.407,1.189 -3.597,1.189 -6.586,2.408 -0.582,4.178 4.179,1.191 1.19,3.016 0.608,2.381 -0.608,3.596 -4.787,1.799 -3.571,1.799 -4.787,4.18 -2.407,5.395 v 2.381 l -2.988,4.205 -0.608,4.787 h -4.787 l -4.18,-2.406 -10.183,-2.988 -2.381,-1.799 -1.798,-3.598 -1.19,-4.18 -4.206,-1.797 -5.369,-1.799 -5.396,-2.381 -4.787,-4.787 -2.989,-3.016 -1.19,-1.771 -3.597,1.189 -1.19,2.988 -0.608,2.99 -2.406,2.988 -16.743,1.799 -8.992,-2.99 -3.571,-3.596 -2.988,-2.988 -3.016,-3.598 1.217,-4.18 -0.608,-2.988 -2.989,-0.609 -5.978,-1.799 h -3.597 l -3.598,5.396 z" /><path
     id="path3213"
     stroke="#000000"
     stroke-width="2.5392"
     d="m 730.831,73.897 -9.404,1.711 -3.42,5.129 v 4.275 l 2.564,5.984 4.275,6.84 4.274,1.711 4.275,1.709 2.564,8.551 4.275,5.984 v 5.129 l 4.274,3.42 6.84,1.711 5.985,1.709 3.42,1.711 4.274,0.855 3.42,3.42 -2.564,3.42 -6.84,-0.855 -3.42,2.564 2.564,0.855 5.985,3.42 5.13,6.84 1.71,4.275 -2.565,5.129 -8.55,-0.855 -4.274,1.711 -3.42,4.273 2.564,4.275 11.97,5.984 6.84,1.711 6.84,0.855 0.855,-3.42 1.71,-1.711 1.71,1.711 -0.855,5.129 1.71,4.275 -0.854,1.709 -2.565,2.566 -0.854,5.129 3.42,1.711 1.71,5.984 v 7.695 l -0.855,5.129 v 4.275 l -5.13,0.855 0.855,5.129 -0.855,4.275 -2.564,2.564 3.42,3.42 0.854,2.564 3.42,0.855 -0.854,1.711 v 0 l -4.275,4.273 3.42,1.711 1.71,2.564 3.42,5.131 3.42,2.564 0.855,4.275 1.71,3.42 2.564,-0.855 4.275,2.564 6.84,-0.855 h 2.564 v 0.855 l 1.71,1.711 -0.854,3.42 1.71,6.84 -0.855,6.84 -1.71,2.564 -1.71,5.129 v 3.42 l 2.565,2.566 3.42,2.564 -0.855,5.984 -0.854,3.42 -2.565,-0.855 -1.71,4.275 3.42,1.711 2.565,2.564 h 4.274 l 2.565,3.42 2.564,2.564 3.42,-1.709 0.855,-3.42 3.42,-2.566 -1.71,-5.984 -3.42,-4.275 -2.565,-1.709 -0.854,-3.42 -0.855,-3.42 -1.71,-2.564 v -4.275 l -3.42,-1.711 v -5.984 l 2.565,-1.709 3.42,-2.566 3.42,0.855 v 7.695 l 6.84,0.855 2.564,2.564 2.565,-0.855 4.274,2.564 5.985,-0.854 2.564,-3.42 2.565,-3.42 h 2.564 l 1.71,4.273 3.42,4.275 0.855,2.564 3.42,0.855 -0.855,3.42 -0.854,2.564 -1.71,3.42 2.564,0.855 0.855,2.564 3.419,2.566 1.711,5.984 4.274,1.709 -1.71,5.131 -9.404,0.855 -1.71,-1.711 h -4.275 l -6.84,2.564 0.855,2.566 -4.275,1.709 -6.84,5.131 v 2.564 l -2.564,5.984 -1.71,2.564 1.71,4.275 2.564,0.855 5.13,-0.855 6.84,-1.711 2.565,-3.42 2.564,-4.273 2.565,1.709 2.564,4.275 5.984,3.42 6.84,2.564 4.275,1.711 v 2.564 5.129 l 5.984,0.855 4.275,-3.42 3.42,-0.854 4.274,4.273 6.84,5.984 3.42,1.711 h 5.13 l -1.71,-1.711 -3.42,-1.709 -4.274,-4.275 -3.42,-4.273 -5.985,-1.711 -4.274,-1.709 0.855,-3.42 2.564,-0.855 -1.71,-1.711 -3.42,-1.709 -0.854,-2.566 0.854,-2.564 h 6.84 l 3.42,0.855 5.13,4.275 8.55,10.26 9.404,9.404 5.985,1.709 4.274,0.855 1.71,0.855 1.71,1.709 2.565,0.855 h 0.854 l 0.855,-3.42 v -1.709 l 2.564,-0.855 4.275,0.855 -0.855,2.564 2.565,2.564 4.274,5.131 0.855,0.854 5.13,0.855 3.42,-0.855 11.114,-0.854 2.565,1.709 5.13,4.275 7.694,4.275 5.13,1.709 4.275,-1.709 10.26,-3.42 6.84,-3.42 3.42,-5.986 5.984,-2.564 4.275,-2.564 h 6.84 l 7.694,4.275 h 5.13 l 4.275,-4.275 5.984,0.855 5.985,1.709 h 4.274 l 4.275,-2.564 4.274,-5.984 1.71,-9.404 5.13,-6.842 v -5.129 l 3.42,-7.695 v -6.84 l 1.71,-7.693 4.274,-5.986 3.42,-1.709 2.565,-9.404 1.71,-5.131 0.855,-4.275 2.564,-9.404 1.71,-9.404 -1.71,-5.131 -1.71,-3.42 -0.854,-3.42 v -5.129 l -2.565,-4.275 -2.565,-9.404 v -4.275 l 3.42,-0.855 -0.854,-2.564 -2.565,-1.709 -4.274,-1.711 -6.84,-3.42 2.565,0.855 9.404,-1.711 v -2.564 l 3.42,-3.42 2.564,3.42 3.42,3.42 1.711,4.275 -0.855,3.42 1.71,3.42 5.13,1.709 5.13,-4.273 1.71,-5.131 -4.275,-5.129 -3.42,-2.566 -3.42,-2.564 -2.564,-3.42 0.855,-8.549 -4.275,-9.406 -1.71,-5.129 -4.274,-6.84 -2.565,-3.42 v -6.84 l -2.565,-4.275 -9.404,-11.969 -1.71,-5.131 -5.984,-7.693 -4.275,-3.42 -3.42,-5.131 1.71,-1.709 -5.13,-2.566 -3.42,-2.564 -1.71,-3.42 4.275,-4.275 7.694,-3.42 2.564,-0.854 5.985,-3.42 h 9.404 l 1.711,-4.275 v -5.131 l -3.42,-4.273 -4.275,-3.42 -1.71,-5.131 -4.275,-3.42 v -6.84 l -1.709,-5.984 -2.565,-11.115 -2.565,-5.984 -7.694,-11.115 -1.71,-5.129 -5.13,-8.551 -4.274,-6.84 -1.71,-3.42 h -5.985 l -3.42,-0.855 -1.71,1.711 -0.854,2.564 1.71,3.42 5.984,2.564 5.985,2.566 v 4.273 l 0.854,8.551 v 10.26 l -3.42,3.42 -3.42,-5.131 -0.854,-5.984 1.71,-5.129 -2.565,-5.131 -2.564,-1.709 -2.565,3.42 -1.71,11.113 1.71,7.695 4.275,7.695 5.13,0.855 1.71,4.273 v 3.42 l 1.71,5.986 -0.855,3.42 -4.274,1.709 -2.565,-4.275 -0.854,-3.42 -1.71,-2.564 -2.565,-1.709 h -4.274 l -2.565,3.42 v 6.84 l 5.13,3.42 2.565,1.709 2.564,0.855 4.275,2.564 v 6.84 l 1.71,2.564 -4.275,3.42 -7.694,-0.854 -1.71,-1.711 -2.565,-0.855 h -2.564 l -0.855,3.42 -5.13,2.566 -1.71,0.854 -7.694,4.275 h -5.13 l -2.565,-0.855 -1.71,-1.709 -2.564,-4.275 -1.71,-0.855 -5.13,-5.984 0.854,-0.855 2.565,-2.564 2.564,-0.855 h 4.275 l 2.564,-5.129 -1.71,-3.42 h -2.564 l -2.565,-1.711 -1.71,-1.709 -2.564,-3.42 -1.71,-2.564 4.274,-4.275 h 2.565 l -1.71,-1.711 0.854,-1.709 1.71,-0.855 h 1.71 l 0.855,2.564 5.984,2.566 4.275,7.693 5.984,3.42 3.42,-2.564 0.855,-5.129 -4.275,-4.275 -10.26,-6.84 -5.13,-4.275 -13.68,-11.115 -5.13,-9.404 -10.26,-8.549 -10.26,-6.84 -12.824,-7.695 -4.275,-3.42 -2.564,-2.564 -6.84,-0.855 -3.42,2.564 -1.71,2.564 v 4.275 l 4.274,0.855 2.565,5.129 0.854,2.566 0.855,3.42 v 2.564 l -0.855,4.275 -5.13,-0.855 -5.13,-4.275 -0.854,-3.42 v -5.129 -3.42 l -0.855,-2.566 -5.13,-2.564 -4.274,1.711 -2.565,3.42 h -9.404 l -4.275,0.854 -9.404,4.275 -10.26,4.275 -14.535,5.129 -14.534,5.131 -10.26,5.129 -12.824,5.986 -7.695,7.693 -6.84,6.84 -8.55,3.42 -11.97,0.855 -11.114,-1.709 -6.84,-5.986 -1.71,-3.42 v -5.984 l 0.854,-5.129 -0.854,-3.42 -2.565,-1.711 -9.404,-1.709 -5.985,0.854 v 1.711 l -5.13,1.709 h -5.13 l -1.71,1.711 0.855,6.84 0.854,0.855 v 3.42 l -5.13,4.273 -5.13,5.986 z" /><path
     id="path9085"
     stroke="#000000"
     stroke-width="2.5392"
     d="m 1088.866,494.188 3.022,-9.068 1.209,-9.674 1.813,-6.65 2.418,-2.418 3.023,-5.441 3.022,-9.672 3.022,-8.465 5.441,-4.836 3.628,-6.045 7.255,-9.674 2.418,-3.627 1.209,-6.65 2.418,-6.045 1.814,-6.65 3.627,-6.65 3.627,-9.068 1.814,-7.859 0.604,-3.627 2.419,-7.256 2.418,-7.254 3.022,-9.674 -0.604,-6.65 2.418,-8.463 0.604,-4.836 3.022,-5.441 -0.604,-3.023 -1.813,-2.418 -4.837,-1.814 -4.836,6.047 -2.419,3.627 -3.627,5.441 -3.023,7.254 -5.44,12.092 -6.65,4.232 0.604,4.23 -1.813,11.488 -2.418,6.045 -1.209,6.65 -2.419,3.627 -1.813,2.418 -1.813,7.256 -4.232,3.021 -3.627,4.836 v 4.838 l -3.627,3.627 -3.023,5.441 -0.604,1.813 -3.627,2.42 -4.837,2.418 -6.045,0.604 -2.419,1.209 -1.813,3.627 -3.627,3.023 -3.023,3.627 -2.418,4.232 -4.837,4.836 -1.209,1.209 -3.022,2.42 -3.022,4.836 -4.837,2.418 -1.209,3.023 -1.813,2.418 -1.209,3.023 1.209,3.021 v 3.023 l 1.813,1.813 3.022,-0.604 3.023,-2.418 3.022,1.209 -1.209,1.209 2.418,4.232 v 2.418 l -3.022,1.813 1.209,1.814 2.418,1.209 -1.813,3.627 -2.418,1.209 -3.628,-1.209 -1.209,1.814 -3.022,-3.023 v -1.813 l -2.419,-0.605 -1.813,4.232 -1.813,5.441 -1.209,6.045 v 4.836 l -3.022,1.209 v 2.42 l -3.023,4.836 -3.022,0.604 -2.418,-0.604 -2.419,-1.814 -4.231,-0.604 -1.813,-1.814 -3.023,-0.604 -1.209,3.627 3.627,6.045 3.628,2.418 5.441,2.418 2.418,5.441 1.813,3.627 0.604,4.838 v 5.441 l 0.604,4.23 1.813,4.232 2.419,3.627 2.418,3.627 v 1.814 3.023 l -0.604,2.418 -2.418,1.813 -1.21,5.441 2.419,2.418 1.813,3.629 1.209,3.627 3.022,1.209 7.255,-1.209 3.628,-5.441 3.627,-3.627 1.209,-7.256 3.628,-4.836 1.813,-6.045 1.813,-6.047 1.813,-6.045 1.814,-5.441 2.418,-4.836 c 0,0 1.813,-6.045 3.022,-9.068 1.209,-3.023 3.628,-7.859 3.628,-7.859 l 2.418,-7.859 3.627,-8.463 z" /><path
     id="path9087"
     stroke="#000000"
     stroke-width="2.5392"
     d="m 1020.551,461.542 4.231,0.604 1.209,4.232 1.209,3.023 -1.209,4.232 -1.813,3.021 -4.837,-1.813 -1.209,-2.42 -4.836,-3.021 1.209,-3.627 2.418,-3.023 z" /><path
     id="path9089"
     stroke="#000000"
     stroke-width="2.5392"
     d="m 1053.196,412.573 -5.44,3.021 -2.418,4.836 v 3.629 l -0.605,3.021 4.837,-2.418 1.209,-4.836 2.418,-1.814 v -5.439 z" /><path
     id="path9091"
     stroke="#000000"
     stroke-width="2.5392"
     d="m 1054.406,431.313 -6.65,2.418 v 1.814 l 3.627,-0.605 h 4.232 l 5.44,-1.813 -1.813,-2.418 h -1.813 z" /><path
     id="path9093"
     stroke="#000000"
     stroke-width="2.5392"
     d="m 986.091,445.218 -7.255,3.629 -2.419,6.65 2.419,-1.814 2.418,-0.605 3.022,-3.627 3.023,1.209 0.604,1.209 2.418,1.209 1.813,-2.418 v -2.418 l -2.418,-1.814 z" /><path
     id="path9095"
     stroke="#000000"
     stroke-width="2.5392"
     d="m 884.524,416.2 -2.418,4.836 v 6.045 l 3.022,3.629 4.836,4.836 2.419,3.627 0.604,4.836 0.604,6.047 1.209,4.23 6.65,6.65 4.231,6.65 6.046,7.256 4.231,2.418 5.441,5.441 1.813,4.23 3.023,5.441 4.836,6.047 4.837,3.627 3.627,4.836 5.441,4.232 3.022,4.836 1.813,2.418 4.232,-1.209 4.836,-5.441 4.232,-3.627 5.441,-1.209 8.464,-3.023 3.627,-0.604 h 9.068 l 3.627,-1.814 1.21,-2.418 -2.419,-3.023 -4.231,-3.627 -1.209,-2.418 -1.21,-1.209 v 0 l -2.418,-3.023 -3.627,-2.418 -2.418,-4.836 1.813,-1.209 1.813,1.209 3.627,-0.605 v -3.021 l -1.209,-1.209 -3.022,-1.211 -2.418,-1.209 h -3.628 l -1.209,1.814 -4.231,0.605 -0.604,-2.42 -3.023,-0.604 -3.627,1.813 4.231,1.211 1.209,1.813 2.419,1.209 -1.814,3.023 -1.209,3.627 -4.231,1.209 -2.419,1.209 -3.627,-5.441 -2.418,-4.836 0.604,-3.023 -0.604,-3.021 v -2.418 l 0.604,-3.023 -0.604,-3.627 -1.813,-2.418 -1.814,-1.209 -1.209,-1.209 -1.813,-0.605 h -3.022 l -1.21,1.814 2.419,1.209 0.604,1.209 1.813,3.021 0.604,2.42 -1.813,1.813 -1.813,3.627 -3.023,1.814 -4.231,1.814 -3.628,-3.629 -4.836,-5.439 -4.837,-3.023 -0.604,-6.045 -1.813,-1.814 -2.418,-3.023 -4.232,-3.021 -2.418,-5.441 -2.418,-1.209 -3.023,-2.418 -5.44,-2.42 -3.023,-2.418 -1.813,-2.418 -1.813,-1.814 -2.418,-3.627 -2.419,-4.836 -1.209,-2.418 -0.604,-1.209 -0.604,-1.209 h -3.024 z" /><path
     id="path9097"
     stroke="#000000"
     stroke-width="2.5392"
     d="m 1030.828,378.112 -4.232,0.605 -2.418,3.021 -1.813,0.605 -1.813,2.418 -0.604,3.023 h -3.628 l -3.022,2.418 -4.232,4.23 -4.231,1.814 -3.628,1.209 -1.813,2.418 -2.418,1.209 -3.628,0.605 -1.209,3.627 v 2.418 l 3.023,3.023 0.604,4.232 v 4.23 2.42 l 2.418,4.836 3.627,3.627 2.419,1.814 1.209,3.021 2.418,1.814 1.813,2.418 3.628,1.814 1.209,-1.814 0.604,-2.418 h 2.418 l 1.813,0.604 3.023,1.211 2.418,2.418 3.628,-1.814 3.022,-3.023 1.209,-2.418 1.209,-1.813 1.813,-2.42 1.21,-3.021 2.418,-1.209 0.604,-2.418 -1.813,-1.209 -1.814,-0.605 -2.418,-0.605 -2.418,-1.813 -1.813,-1.209 1.209,-2.418 2.418,-3.629 1.813,-1.813 1.814,-3.627 1.813,-4.232 3.627,-1.814 0.604,-2.418 1.813,-3.023 v -3.021 l -2.418,-1.209 -1.813,-1.814 -2.418,-2.418 -1.209,-1.209 v -1.814 l -1.21,-1.209 -0.604,-3.021 -1.209,-1.814 z" /><path
     id="path9099"
     stroke="#000000"
     stroke-width="2.5392"
     d="m 1053.196,376.903 3.628,0.604 2.418,1.211 1.813,-1.211 3.023,-1.209 3.022,1.814 1.209,3.023 v 3.021 l -1.209,1.814 1.209,1.209 1.209,0.605 1.814,1.209 -1.21,2.418 -1.813,2.418 -3.022,-0.605 -4.837,-0.604 -4.836,-1.209 -1.814,-1.209 v -1.814 l -2.418,-1.814 -3.022,-2.418 1.813,-1.813 z" /><path
     id="path9101"
     stroke="#000000"
     stroke-width="0.8464"
     d="m 973.394,398.063 z" /><path
     id="path9103"
     stroke="#000000"
     stroke-width="0.8464"
     d="m 979.44,402.899 z" /><path
     id="path9105"
     stroke="#000000"
     stroke-width="2.5392"
     d="m 975.812,398.063 -3.022,-3.023 -1.209,2.418 -0.604,3.023 0.604,1.813 2.418,1.209 1.209,0.605 2.419,1.209 h 2.418 l 0.604,-3.023 -1.209,-1.209 z" /><path
     id="path9107"
     stroke="#000000"
     stroke-width="2.5392"
     d="m 979.44,423.454 -2.418,3.627 3.627,0.605 2.418,-1.814 z" /><path
     id="path9109"
     stroke="#000000"
     stroke-width="2.5392"
     d="m 959.489,416.803 -3.022,2.418 -6.046,-1.209 -3.627,-3.627 -1.813,3.023 h -2.419 l -0.604,6.045 4.232,3.023 6.65,-1.814 2.418,1.814 1.813,3.021 1.813,-2.418 h 3.023 l 3.022,-3.627 0.604,-3.023 z" /><path
     id="path9111"
     stroke="#000000"
     stroke-width="2.5392"
     d="m 898.429,378.112 6.65,2.418 v 1.814 l 4.837,1.813 3.022,1.814 6.046,1.814 2.418,3.627 h 2.418 l 2.419,1.813 2.418,-0.604 2.418,0.604 0.604,2.42 1.813,1.813 1.814,1.814 -1.209,1.813 -3.628,1.209 -1.813,-0.604 -1.813,-1.814 -4.837,-0.604 -4.231,-1.209 -2.419,-1.814 -6.045,-2.418 -5.441,-1.209 -3.022,-2.418 -1.814,-0.605 -0.604,-2.418 v -3.023 l -1.209,-1.209 -2.418,-1.813 v -3.023 h 3.626 z" /><path
     id="path9113"
     stroke="#000000"
     stroke-width="2.5392"
     d="m 857.319,362.999 4.231,-2.42 3.022,-1.813 1.21,1.813 -1.21,3.023 -0.604,1.814 3.628,3.627 h 3.022 l 1.813,2.418 1.814,1.814 v 1.813 l -1.814,1.814 -1.813,3.023 -5.44,-0.605 -4.232,-3.023 -2.418,-1.209 -1.209,-4.23 v -2.42 -1.813 z" /><path
     id="path9115"
     stroke="#000000"
     stroke-width="2.5392"
     d="m 845.227,316.446 4.232,0.605 h 3.627 l 3.022,-1.814 h 2.419 l -0.604,-2.418 -1.814,-0.604 -1.813,-1.814 -1.209,-2.418 -1.813,-1.209 -4.232,-0.605 -1.209,1.209 v 1.814 l -1.813,1.814 -2.418,1.209 -1.209,2.418 v 1.813 z" /><path
     id="path9117"
     stroke="#000000"
     stroke-width="2.5392"
     d="m 1105.794,90.946 -3.628,2.418 -0.604,3.023 -1.209,3.627 1.813,4.232 h 4.231 l 2.419,1.209 3.022,0.604 3.023,-1.813 3.627,-1.211 3.627,-1.209 -2.418,-3.021 -2.418,-3.023 -3.023,1.209 -1.813,-1.813 -1.813,-1.814 -0.604,-2.418 -1.209,-0.605 z" /><path
     id="path9119"
     stroke="#000000"
     stroke-width="2.5392"
     d="m 902.056,3.284 -4.232,1.814 -3.022,1.813 1.209,3.629 4.232,3.021 v 6.047 l 0.604,5.439 v 2.42 l 1.209,0.604 h 1.209 l 1.209,-2.418 v -5.441 l -0.604,-5.441 v -2.418 l 3.022,-1.209 0.604,-2.418 -0.604,-2.418 -1.209,-1.814 z" /><path
     id="path9121"
     stroke="#000000"
     stroke-width="2.5392"
     d="m 720.084,162.284 -3.628,2.418 -1.209,3.023 3.022,3.021 4.232,-0.604 h 2.418 l 1.813,-0.605 0.604,-3.627 -3.627,-1.813 z" /><path
     id="path9123"
     stroke="#000000"
     stroke-width="2.5392"
     d="m 761.193,200.975 v -4.836 l -2.418,-1.814 -3.022,-2.418 -1.209,-2.418 -2.419,1.209 -2.418,3.627 -1.209,3.023 1.813,6.045 2.418,2.418 v 0.605 l 3.023,4.836 4.231,-3.021 1.209,-2.42 v -1.813 -3.023 z" /><path
     id="path9125"
     stroke="#000000"
     stroke-width="2.5392"
     d="m 662.65,303.147 -4.837,1.209 -1.813,1.209 -1.813,3.627 3.022,1.814 1.209,0.604 1.21,1.209 1.209,1.209 2.418,1.814 0.604,1.209 2.418,-1.209 3.023,-2.418 -1.813,-6.047 z" /><path
     id="path9127"
     stroke="#000000"
     stroke-width="2.5392"
     d="m 751.52,353.93 9.068,9.672 7.255,8.465 3.628,5.439 7.254,3.629 6.65,1.813 6.65,1.209 5.441,2.418 2.418,4.232 4.231,9.674 3.628,4.836 4.836,7.256 4.837,7.857 3.022,10.883 1.209,5.441 1.814,10.277 1.209,6.65 v 4.232 l 1.813,3.021 2.418,7.256 v 1.813 l -1.209,3.629 -3.627,1.209 -7.255,-1.209 -2.418,1.209 -5.441,5.439 -6.046,5.441 h -8.464 l -15.113,-2.418 -3.628,-4.232 -5.441,-1.813 -8.464,-3.627 -1.813,-5.441 v -3.627 l 4.232,-3.629 4.231,-1.813 3.628,-0.605 3.022,1.209 2.418,3.023 3.023,4.232 4.231,2.418 6.046,3.627 3.022,3.023 3.628,0.604 3.022,-0.604 1.813,-1.209 -0.604,-1.814 -3.627,-4.836 -1.209,-1.209 -3.023,-2.418 -7.859,-4.232 -4.836,-4.836 -6.046,-4.838 -3.627,-1.209 -2.419,0.605 -4.231,1.813 -0.604,3.023 -5.441,1.209 h -2.418 l -3.022,1.209 -1.814,1.209 -5.44,-1.209 -5.441,-1.209 -2.418,-1.814 -1.813,-1.813 -2.419,-3.627 -0.604,-4.838 -0.604,-3.021 -0.604,-1.209 -2.418,-3.629 -2.419,-3.021 -1.209,-3.023 -0.604,-9.674 0.604,-8.463 -1.209,-5.441 -1.209,-1.813 -0.604,-2.42 -0.604,-2.418 0.604,-2.418 1.813,1.209 1.813,2.418 3.628,3.023 5.44,4.232 2.419,4.232 1.209,4.836 3.022,4.836 4.232,6.65 3.627,2.418 3.628,-0.604 1.813,-1.814 4.836,-1.209 -1.209,-1.814 h -1.813 l -1.813,-1.209 -3.628,-5.441 -1.813,-3.627 1.209,-1.813 1.814,-1.814 v -1.814 l -2.419,-1.209 -4.231,-2.418 -1.209,-1.813 -4.232,-2.42 -3.022,-1.209 -2.419,-1.209 -1.813,-2.418 -3.022,-2.418 -0.604,-1.814 1.209,-1.813 0.604,-2.418 1.813,-1.209 1.209,-1.814 -3.627,-0.605 h -6.046 l -10.277,-1.813 h -8.464 l -6.046,-2.418 -4.836,-5.441 -5.441,-3.023 3.023,-2.418 2.418,-2.418 3.022,-1.814 h 1.813 l 1.814,1.209 h 3.022 l 3.022,-1.209 -1.209,-2.418 -2.418,-0.604 -6.65,0.604 -4.231,0.605 -4.837,-1.814 -4.232,-1.209 1.21,-4.836 3.627,-5.441 1.813,-2.418 7.255,-3.023 4.837,-4.232 3.627,-3.021 7.859,-1.209 6.65,-0.605 9.068,1.814 4.836,2.418 2.419,3.627 9.673,6.045 z" /><path
     id="path9175"
     stroke="#000000"
     stroke-width="2.5392"
     d="m 248.538,25.249 -1.795,3.592 v 2.992 l 0.599,2.395 1.795,2.393 1.796,4.189 3.591,-1.795 0.599,-5.984 -1.197,-2.395 -1.796,-2.992 z" /><path
     id="path9177"
     stroke="#000000"
     stroke-width="2.5392"
     d="m 260.508,88.688 -6.583,-5.387 -2.992,-5.984 -2.395,-5.387 0.599,-3.59 1.796,-5.387 1.795,-0.598 1.796,0.598 1.795,1.197 0.599,2.992 v 2.395 2.992 l 0.599,2.393 2.394,-2.393 1.197,-5.387 1.197,-4.787 4.788,-3.592 4.787,1.197 3.591,1.197 1.197,4.189 v 2.393 l 0.599,7.781 -0.599,4.189 v 2.992 l 0.599,3.59 2.992,2.994 1.796,-1.797 2.394,-2.992 3.591,-1.197 2.395,2.395 2.394,5.387 1.197,4.787 0.599,4.189 1.196,1.797 -2.992,2.992 -2.394,3.59 -1.796,3.592 2.395,4.189 3.591,3.59 v 8.379 2.992 2.992 4.189 2.992 l -1.796,2.395 h -2.992 l -5.387,-1.795 -3.591,-4.189 -1.795,-3.592 -1.796,-5.385 -1.197,-3.592 -3.591,-10.773 -2.394,-5.984 -0.599,-4.189 -3.591,-10.771 -1.796,-2.395 z" /><path
     id="path9179"
     stroke="#000000"
     stroke-width="2.5392"
     d="m 328.137,173.075 h -8.379 l -2.992,3.592 -2.394,2.393 -1.796,4.789 2.394,4.787 4.788,-0.598 5.387,-3.592 3.591,-4.787 2.992,-1.797 1.197,-2.992 v -2.393 z" /><path
     id="path9181"
     stroke="#000000"
     stroke-width="2.5392"
     d="m 300.606,224.544 -5.984,5.387 -4.189,3.592 -2.395,6.582 -1.795,5.387 0.599,5.387 -2.993,7.781 v 5.385 l 0.599,3.592 -1.795,3.592 -1.197,5.385 -0.599,4.189 -1.197,1.197 -2.992,4.789 0.599,3.59 2.394,4.189 v 3.592 l 0.599,4.189 3.591,7.182 3.591,4.189 h 7.78 l 4.788,-2.395 4.189,-4.189 8.379,-4.787 v -8.379 l -1.795,-1.797 -2.395,-2.992 2.992,-7.779 v -7.781 -3.59 l 2.993,-2.992 5.386,-2.395 v -3.592 l -1.196,-3.59 0.598,-7.182 1.197,-1.797 1.796,-2.992 2.992,-7.182 -1.197,-4.189 -6.583,-5.984 -6.583,-2.395 -5.985,-2.393 z" /></g><g
   id="g3"
   style="fill:#ffacaa"
   transform="translate(-165.62946,1277.3855)"><path
     id="path11146"
     stroke="#000000"
     stroke-width="0.8464"
     d="m 217.947,-158.359 2.459,-1.322 3.598,-5.396 h 3.597 l 5.978,1.799 2.989,0.609 0.608,2.988 -1.217,4.18 3.016,3.598 2.988,2.988 3.571,3.596 8.992,2.99 16.743,-1.799 2.406,-2.988 0.608,-2.99 1.19,-2.988 3.597,-1.189 1.19,1.771 2.989,3.016 4.787,4.787 5.396,2.381 5.369,1.799 4.206,1.797 1.19,4.18 1.798,3.598 2.381,1.799 10.183,2.988 4.18,2.406 h 4.787 l 0.608,-4.787 2.988,-4.205 v -2.381 l 2.407,-5.395 4.787,-4.18 3.571,-1.799 4.787,-1.799 0.608,-3.596 -0.608,-2.381 -1.19,-3.016 -4.179,-1.191 0.582,-4.178 6.586,-2.408 3.597,-1.189 2.407,-1.189 1.799,2.379 2.988,5.396 4.787,2.381 5.978,-1.191 2.381,-1.797 4.787,-1.191 11.982,0.609 7.775,2.379 7.194,5.979 1.799,4.787 0.582,5.396 1.19,2.988 6.004,2.988 0.582,1.217 6.586,1.191 6.004,-1.799 4.179,-1.191 7.776,0.582 4.205,-0.582 -0.608,-3.596 -1.189,-1.799 -0.608,-2.381 -4.788,-1.799 -1.798,-3.598 4.787,-3.596 3.597,-1.799 3.598,-2.381 0.582,-4.205 1.798,-2.99 0.608,-7.166 2.989,-1.799 4.787,-2.99 0.608,-2.988 2.381,-3.016 4.787,0.609 7.775,-0.609 9.575,2.408 8.385,1.799 2.988,2.379 v 5.396 2.988 l -2.988,7.195 -2.989,6.586 2.381,2.988 3.015,1.799 2.989,2.988 2.381,-1.217 3.597,2.406 1.799,4.789 5.978,1.189 1.799,-3.598 0.607,-1.771 3.571,-2.406 1.799,2.406 2.988,0.582 2.407,-5.369 4.787,-1.217 2.381,-1.189 3.597,-4.18 1.799,-6.004 6.586,-3.57 2.407,2.379 1.771,1.191 7.194,-2.99 7.776,-8.965 8.993,-9.576 4.787,-5.977 1.19,-7.803 2.988,-3.57 2.381,-4.205 4.205,-3.598 3.598,-2.381 5.369,4.18 1.217,3.596 1.189,3.598 4.18,1.799 7.194,1.799 5.369,1.799 2.988,2.988 9.602,-1.217 2.381,-1.771 5.978,2.988 4.787,2.988 1.799,2.99 0.608,1.797 0.581,3.598 0.608,3.57 4.788,6.586 5.396,7.777 4.179,5.395 4.206,4.18 1.771,4.787 -1.19,4.205 1.19,5.396 -4.787,2.381 -1.19,4.178 4.787,2.408 h 5.396 l 2.988,0.607 2.381,2.381 3.597,4.18 0.608,4.787 2.381,8.992 1.217,5.979 5.369,4.205 7.194,-1.217 5.369,-3.57 3.015,-1.799 4.788,0.582 3.57,1.217 2.407,2.988 -0.608,4.18 -1.799,2.406 -2.381,2.988 -3.597,3.57 -2.989,3.598 1.799,6.004 3.598,0.582 2.38,0.609 4.787,-2.99 2.989,0.582 6.586,0.609 4.787,2.988 4.788,4.18 1.189,2.406 0.608,4.787 -0.608,5.396 -2.38,2.988 -0.608,4.18 -0.45,3.438 4.655,0.662 4.259,3.438 5.131,5.979 3.438,5.131 5.978,2.566 3.412,1.691 6.851,1.719 4.258,1.721 8.57,4.258 5.978,0.873 5.131,-3.439 7.697,-3.412 7.696,-2.564 h 10.263 l 18.806,-3.412 11.955,-0.873 6.851,3.439 1.719,-4.285 -2.565,-4.26 -2.565,-5.131 -6.004,-2.564 1.719,-4.285 2.566,-4.285 5.978,0.873 5.978,-1.719 v -0.848 l 6.851,-1.719 6.85,0.846 1.693,-3.412 -1.693,-4.283 -6.004,-1.693 -5.978,-0.873 -3.412,-2.539 -5.131,-3.438 -0.847,-5.133 3.412,-4.258 4.259,-2.566 4.284,-4.283 5.132,-5.133 0.846,-3.41 -2.565,-2.566 -0.846,-5.131 -4.285,-3.412 -5.104,-2.566 1.692,-6.004 h 4.285 l 3.412,1.719 5.131,4.285 1.719,4.26 5.132,2.564 5.978,1.719 3.412,-5.977 1.719,-1.719 -3.412,-2.566 -3.438,-1.719 h -5.978 -4.284 l -2.566,-2.566 -0.846,-4.258 1.719,-0.873 7.697,-0.846 5.131,-0.848 6.824,-2.564 2.565,-1.721 0.847,-3.412 1.719,-5.131 3.412,-0.846 1.72,1.693 v 4.283 l -0.847,5.133 0.847,4.258 4.284,4.285 9.39,3.412 4.285,-1.693 v -3.438 l 1.719,-1.693 3.412,-0.873 1.693,-2.566 -0.847,-5.977 -4.259,-1.719 -2.565,-1.693 v -2.566 -2.564 l 2.565,-3.412 h 3.412 l 5.132,-3.439 6.823,-5.977 6.851,-4.285 1.72,-3.412 -0.873,-3.412 -0.847,-3.438 0.847,-4.26 2.565,-5.131 v -8.543 l -2.565,-6.85 -0.847,-4.285 0.847,-8.543 1.719,-3.412 1.72,-2.566 2.565,-6.85 4.259,-1.693 1.719,-3.438 v -1.693 l -4.285,-0.873 -1.692,-2.566 2.565,-8.543 v -2.564 l -1.719,-4.26 -3.412,-10.262 -0.873,-11.135 -5.131,-14.521 -5.132,-11.982 0.873,-11.108 3.412,-9.39 3.412,-6.004 5.131,-5.131 3.438,-5.978 8.543,-5.979 3.412,-2.565 0.847,-3.412 3.438,-6.004 9.39,-3.412 2.565,-0.846 3.438,-5.132 1.692,-5.131 v -5.131 l 4.285,-5.132 3.412,-0.873 5.978,-2.539 0.873,-3.438 v -3.411 l 3.412,-2.566 h 2.565 l 4.285,0.847 4.258,-1.692 3.438,-0.873 1.693,0.873 3.438,1.692 v 4.285 l 0.847,2.565 5.131,3.412 h 6.824 l 3.438,0.846 1.693,2.566 v 2.565 l -5.978,2.565 -2.566,1.719 v 2.566 l -1.719,3.412 -5.104,2.565 -3.438,6.004 -1.693,2.565 1.693,0.847 2.565,1.719 2.565,1.693 1.719,2.565 v 5.131 l -6.85,5.978 -5.132,-2.565 -1.692,-3.412 -2.565,-1.719 0.847,-5.105 v -2.565 l -1.72,-0.873 -2.565,0.873 -3.412,5.105 -4.285,3.438 -4.258,1.693 h -4.285 -6.824 l -3.438,1.719 1.72,3.412 3.412,2.565 4.284,2.566 -0.846,3.438 0.846,5.131 5.978,8.543 h 6.851 l 4.259,-2.565 3.438,-5.131 2.565,-1.72 3.412,-1.692 7.696,2.565 3.412,0.847 1.72,4.284 8.543,4.259 4.285,-1.693 2.565,-2.565 1.692,-2.565 4.285,-6.851 9.39,-11.108 8.569,-10.263 3.412,-2.565 7.696,1.719 6.852,1.693 5.977,5.131 1.693,5.978 -0.847,9.416 -3.412,4.285 -4.284,-1.72 -3.412,0.847 -3.412,4.285 0.846,2.565 3.412,4.259 5.132,3.438 7.696,9.389 2.566,2.566 3.411,1.719 2.565,-2.565 3.439,-4.285 3.411,-5.131 4.285,-4.259 1.692,-2.565 -2.565,-3.412 -0.847,-3.438 1.72,-17.086 1.692,-3.438 2.566,-4.259 1.719,-2.565 5.131,-1.719 4.259,-2.566 6.004,-4.258 3.412,-5.132 4.285,-1.719 0.847,-4.285 2.565,-9.39 1.719,-2.565 -0.872,-3.412 v -0.872 l 4.284,-0.847 h 0.847 l 4.284,0.847 2.565,-0.847 5.132,-9.416 10.263,-11.955 3.412,-3.438 1.719,-5.104 0.847,-12.828 v -8.57 -3.412 -6.85 l 3.411,-6.824 0.873,-5.132 3.412,-8.543 2.565,-2.565 h 7.697 l 1.692,-1.719 0.873,-1.72 -3.438,-4.259 -5.131,-5.131 -2.539,-6.851 -7.697,-6.823 -10.263,-7.697 -1.719,-2.565 v -4.285 l -0.847,-6.824 -2.565,-5.131 -7.697,-8.569 -10.262,-5.132 -9.416,-0.846 -6.824,0.846 -6.004,3.438 -10.236,-0.873 -17.959,1.72 -10.263,4.285 -20.524,0.846 -8.543,0.847 -17.113,-3.412 -12.828,-1.719 -8.543,-4.259 -8.543,-9.416 -5.132,-4.285 -9.416,-11.955 -1.692,-7.696 -2.565,-8.543 -1.217,-6.031 c -1.237,-0.64 -2.222,-1.163 -2.222,-1.163 h -5.369 l -2.989,0.608 -3.597,5.396 -8.385,8.357 -4.787,6.005 -4.18,8.357 -4.787,4.206 -1.799,6.586 0.582,11.955 0.608,9.574 -2.38,4.206 -1.217,4.787 1.798,3.57 5.978,0.608 3.598,-0.608 2.988,0.608 1.217,1.799 -4.205,1.799 -3.598,-0.608 -11.955,-1.19 -7.775,1.19 -6.586,0.608 -2.989,2.988 -8.993,3.598 h -4.179 l -5.396,-4.206 -11.373,1.217 -4.788,-0.608 -4.179,-0.608 6.586,-3.57 h 5.978 l 12.563,0.582 h 4.787 l 16.161,-3.598 8.385,-5.369 4.179,-8.992 v -9.575 l -0.582,-6.586 v -10.156 l 2.381,-7.194 5.396,-3.598 1.19,-5.978 6.586,-7.168 3.597,-3.597 7.776,-5.978 8.385,-6.586 7.168,-5.396 6.823,-0.265 0.794,-0.503 4.284,-5.131 v -5.132 l -2.565,-8.543 1.693,-3.412 0.872,-2.565 -1.719,-9.416 v -4.285 l -2.565,-5.131 -1.085,-2.698 -2.592,-1.058 -0.847,-1.692 -5.078,1.692 h -4.231 -3.386 l -1.693,3.386 -4.231,-2.539 -1.692,-1.693 -5.079,-0.846 -5.925,3.385 -11.003,5.079 1.587,-2.381 -4.258,4.259 -5.978,2.988 -4.179,1.799 -1.19,2.38 -1.799,3.598 -0.608,5.978 -7.194,1.19 -4.787,1.799 -1.19,6.004 -2.381,2.988 -4.205,3.598 -8.967,5.978 -13.779,4.787 -5.37,2.989 -3.597,1.189 h -13.172 l -2.989,-0.582 -1.798,-1.798 -1.19,2.38 -2.407,3.598 -2.38,2.406 -1.799,1.19 -2.989,1.19 -4.179,2.407 h -7.803 l -2.38,1.771 -2.407,2.407 -1.799,2.989 -1.772,2.988 -8.384,1.799 h -4.788 l -6.586,-3.598 -5.396,-2.988 -4.179,-1.19 -4.205,0.608 -3.571,1.772 h -5.396 l -2.989,-4.18 -5.396,-6.586 -5.369,-7.775 -1.217,-2.989 -4.787,-0.608 -5.369,1.19 -3.598,1.217 -1.798,2.38 -2.989,0.608 -2.407,-1.19 -0.581,-3.015 1.798,-5.369 1.19,-4.788 1.799,-2.406 1.799,-1.19 2.988,-2.381 3.598,-3.015 -1.217,-4.18 -4.18,-1.189 -6.586,-2.407 -8.966,-2.989 -13.172,-1.189 h -10.18 l -4.179,-6.586 -2.989,-2.407 -2.406,-1.772 -0.608,-5.396 2.406,-2.407 v -2.988 l -0.607,-4.179 -1.799,-1.799 -0.582,-1.19 -1.799,-4.205 -2.988,-1.799 -5.396,0.608 -2.988,4.179 -1.19,3.016 2.989,1.19 1.189,5.978 -1.798,2.988 -3.571,4.206 -3.015,4.179 -2.381,3.597 -2.407,-4.205 -13.145,-6.56 v -3.016 l -2.407,-4.179 h -5.396 l -4.788,-2.988 -2.988,-2.989 -4.179,1.19 -6.216,-1.561 0.105,1.825 1.825,4.84 1.799,5.449 -3.016,3.015 -3.016,3.016 -0.607,4.231 -0.608,6.666 -3.624,4.813 v 2.434 l -1.217,4.231 0.608,5.449 -3.016,5.422 -2.433,4.231 -3.624,2.434 v 5.422 l 0.608,2.434 3.016,3.016 0.608,1.825 2.433,1.189 6.031,0.608 3.015,-2.406 1.825,-1.217 1.217,-1.799 1.799,-1.825 6.665,-2.407 2.407,0.582 1.217,1.825 0.607,3.016 -1.824,3.041 -1.799,1.19 -1.217,1.217 0.608,2.407 0.608,1.825 1.19,3.015 -1.19,3.624 h -4.232 l -2.433,-1.799 -1.799,-1.217 -0.608,-3.623 -1.217,-0.608 -2.407,2.433 -1.216,1.19 -3.016,4.232 -3.65,3.041 -2.406,-0.607 -0.608,-3.624 -3.624,-3.65 -3.623,-6.639 -4.841,-8.464 -1.825,-6.639 v -3.042 l 1.217,-6.639 4.841,-3.623 3.623,-3.042 3.016,-4.232 0.608,-3.015 -1.19,-7.247 -4.232,-3.016 -3.649,-1.217 -1.799,-0.608 -4.84,-1.217 -5.449,-2.406 h -6.03 l -1.825,2.406 -2.406,2.434 -3.624,1.19 -4.231,-1.19 -1.825,-3.624 -1.825,-3.041 -0.582,-2.407 0.582,-5.448 1.825,-4.841 -0.608,-2.406 -1.799,-0.608 -1.825,1.825 -1.217,3.015 -0.608,3.016 -1.798,5.448 -3.016,3.016 -4.84,2.433 -3.042,4.232 1.217,2.407 4.84,1.217 6.057,-1.825 2.407,0.608 0.608,2.406 -3.016,5.449 -1.824,2.433 h -1.825 l -2.407,-2.433 -2.406,-2.407 -6.058,0.608 -3.015,0.582 -1.217,1.825 -1.825,3.623 v 2.434 l 3.042,2.407 v 3.015 l -1.217,4.841 -1.825,5.448 -4.813,2.407 h -5.449 l -2.434,-5.423 -1.189,-4.231 -1.217,-7.882 0.608,-6.639 1.798,-6.058 4.232,-7.247 2.434,-4.84 2.406,-3.624 3.624,-2.406 4.231,-2.434 4.841,1.825 2.434,-0.608 -0.608,-3.016 -4.232,-3.042 -1.217,-4.231 2.434,-3.624 7.247,0.608 1.217,-1.798 1.799,-6.058 2.433,-3.015 v -2.434 l 4.232,-7.247 h 1.799 l 7.855,-0.608 0.608,-3.016 -0.608,-4.84 -2.407,-3.016 -3.015,-4.231 -4.232,-4.232 -2.434,-6.057 -4.231,-11.479 -0.608,-4.231 v -6.058 l 2.434,-3.623 -1.217,-4.232 -3.624,-1.798 -3.015,-1.825 -3.042,-4.232 -6.639,-3.015 h -3.624 -3.042 l -4.231,3.015 2.434,1.825 1.217,3.016 -1.217,1.799 h -5.449 l -3.623,-2.407 -2.407,-0.608 -4.231,-4.232 -7.274,-1.216 -3.623,-1.799 -2.407,3.015 -6.665,4.232 -7.247,5.448 -4.232,3.624 -4.231,2.407 -6.639,1.216 -1.217,3.016 -1.217,7.882 -3.624,3.016 -3.623,6.03 -3.016,3.65 -3.65,3.015 -3.015,3.624 2.434,3.015 4.231,-1.189 3.016,-0.608 1.799,-1.217 2.433,1.825 h 1.799 l 2.434,-1.217 3.015,-1.217 2.434,1.217 1.799,3.623 5.448,2.407 1.799,3.042 -0.582,2.406 -3.649,3.016 -5.423,-0.582 -2.434,-3.65 -0.608,-2.406 -1.798,-1.217 -1.217,0.608 -0.608,3.015 -1.799,1.825 -3.041,1.825 -6.031,1.19 -2.434,-3.016 -4.231,-0.608 0.608,-3.623 -2.407,-0.608 -1.825,3.015 -2.406,3.65 -3.016,1.799 -3.042,4.231 -2.406,2.434 0.608,5.422 -3.624,4.841 -4.84,3.623 -0.608,3.624 -6.665,4.84 -4.232,5.449 -3.015,1.825 -1.799,-2.434 -2.434,-2.407 -4.231,-2.434 h -4.232 l -2.406,1.825 -1.825,4.232 2.433,7.855 2.407,2.406 0.608,2.434 2.407,3.016 0.608,2.434 v 4.813 l 3.015,1.825 4.232,3.015 1.825,3.624 7.247,3.65 1.825,1.189 v 5.449 l -2.434,3.623 -1.799,3.016 -3.623,1.825 -4.232,3.623 v 3.624 l 0.608,4.231 1.799,3.042 1.217,3.623 v 6.031 l -0.608,5.448 -3.624,7.855 -5.448,3.016 -7.855,1.217 -8.464,1.824 -11.479,-4.84 -3.623,-1.217 -4.841,-6.03 v -3.042 l 0.608,-4.84 -1.825,-1.799 -3.015,3.016 -4.841,-1.217 -1.217,-1.799 3.016,-3.016 3.042,-2.433 0.608,-7.247 -0.608,-4.232 -1.217,-4.84 -3.016,-3.016 -2.434,-3.624 v -7.882 l 0.608,-4.231 0.608,-3.624 1.825,-3.015 1.799,-1.825 v -1.799 l -3.624,1.217 -0.608,1.799 -3.015,4.84 -1.217,1.825 -1.799,3.016 -3.65,4.84 -3.015,1.19 -2.407,3.042 0.608,3.015 -4.231,2.407 -1.825,-1.19 -2.407,-2.434 -0.608,-2.406 -1.217,-2.434 -1.825,-3.624 -5.422,-4.84 -7.855,-3.624 -7.882,-4.84 -5.422,-3.016 -7.855,-3.015 -3.65,-1.217 -13.277,-0.608 h -3.65 l -2.407,2.434 -3.015,2.406 -0.608,5.449 v 3.015 l -3.624,0.608 -2.434,-4.231 -0.607,-4.841 -0.582,-7.855 1.189,-2.407 3.624,0.582 3.65,-0.582 1.189,-2.433 -3.015,-3.624 -2.407,-3.015 h -2.434 l -9.071,-2.434 -5.423,-2.407 -1.825,-3.015 1.217,-4.841 v -3.623 l -3.041,-2.434 -7.855,-3.016 -3.624,-4.231 0.608,-6.058 1.825,-3.015 h 2.406 l 2.407,0.608 1.825,1.798 2.407,0.608 0.608,-4.84 -0.608,-1.799 -2.407,-1.217 -3.016,-1.217 v -4.231 l 3.624,-3.624 3.015,1.825 1.825,-3.623 2.407,-1.217 1.825,-3.016 -1.217,-3.042 -3.016,-0.581 -1.217,-3.65 -1.216,-5.422 -2.407,-1.217 -3.624,4.231 -2.433,3.624 -4.841,8.464 -7.247,12.695 -4.84,12.696 -4.232,12.087 -5.422,15.738 -5.449,15.711 -3.015,13.912 -3.042,11.479 -0.608,15.103 -0.582,12.695 -2.433,13.305 -1.217,16.319 -1.799,13.304 -0.608,10.289 v 5.422 l 2.407,1.825 h 3.041 l 1.799,-6.057 -0.608,-7.247 v -4.841 l 0.608,-10.87 v -4.232 l 3.042,-1.825 0.582,1.217 2.433,1.217 h 2.407 l 3.624,1.19 0.608,5.448 v 3.016 l -1.19,3.041 -1.825,1.19 -1.217,3.65 v 2.406 l 3.042,2.407 1.799,4.232 2.433,5.448 4.232,5.448 7.855,7.856 6.03,6.639 2.434,4.231 0.608,5.448 0.582,4.232 1.824,3.016 4.232,2.433 4.84,1.799 h 1.799 l -0.582,4.232 -1.217,4.84 -4.231,1.825 -7.247,4.84 -4.232,0.608 -3.041,-1.825 0.607,-4.84 0.608,-5.448 -4.84,-3.624 -6.03,-2.407 -5.449,-2.433 -6.057,-4.232 -3.623,-3.016 -7.856,-0.607 -1.824,-3.624 v -3.624 l 1.824,-3.015 3.016,-2.434 v -4.231 l -3.016,-3.016 -0.607,-3.624 -4.232,0.608 -1.217,1.19 -0.582,3.042 v 6.03 l -1.824,14.521 v 10.263 12.696 l 1.216,26.607 -1.216,14.521 -4.841,18.726 -4.231,16.928 -4.841,17.536 -1.799,12.088 -4.231,15.129 -1.825,13.886 -2.407,10.289 1.799,12.088 1.825,7.856 1.217,6.664 3.015,1.191 3.624,-1.799 1.217,-4.84 v -3.625 l -1.825,-3.016 -0.608,-5.448 1.217,-3.016 1.825,-9.071 0.582,-6.058 0.608,-8.464 3.623,-3.623 2.434,-9.681 v -4.841 l 1.799,-1.798 1.825,1.217 2.406,3.623 6.057,3.016 4.841,1.825 3.016,2.406 8.464,3.624 4.231,3.015 4.232,4.841 6.665,6.665 6.03,4.84 1.825,6.64 0.608,4.231 v 12.087 l -1.217,10.896 1.217,10.871 4.231,6.057 2.407,4.232 4.84,5.422 2.407,2.434 3.042,4.84 0.582,6.641 1.216,7.246 -2.406,6.666 -3.042,2.406 -3.016,2.434 3.016,2.406 3.042,2.408 1.799,1.217 2.433,2.432 -3.623,3.016 h -6.666 l -2.406,1.799 -3.042,4.84 -3.016,2.434 -3.015,5.422 -7.247,4.842 -4.841,1.824 -7.273,5.449 -1.799,3.623 -3.623,-1.826 -0.608,-2.406 h -4.841 l -0.607,2.406 -1.217,3.625 -1.799,2.434 -3.016,-3.043 v -1.189 l 1.19,-0.609 2.434,-1.217 -1.825,-1.215 -1.217,-3.625 1.825,-5.422 h 1.217 l 3.015,1.799 h 4.232 v -3.623 l 1.217,-0.609 2.407,-1.799 1.824,-2.434 1.799,-1.797 -3.016,-2.434 -0.607,-3.625 -3.624,-0.607 -1.825,1.217 -1.19,6.031 -1.217,-0.582 -1.216,-4.232 -3.016,-1.826 2.407,-4.23 2.433,-0.609 2.407,-1.217 0.608,-1.799 -4.84,-3.014 -7.248,0.582 -2.406,1.217 h -2.434 v 2.432 l 1.217,1.191 -0.608,3.041 v 2.406 l -3.016,1.826 -1.216,2.406 2.406,0.609 1.825,1.217 v 3.623 l -1.217,4.232 -1.799,1.799 -0.608,2.432 -3.015,3.625 -0.608,5.447 -0.608,3.625 -1.825,1.189 -1.799,-0.582 v -1.824 l -0.608,-3.625 v -4.23 l 3.016,-3.016 2.434,-4.232 1.19,-5.449 -1.799,-9.68 0.608,-3.623 v -1.826 l -4.232,-4.23 v -4.814 l 1.19,-3.041 3.042,-1.191 v -2.434 l -1.217,-5.447 -2.434,-1.799 1.217,-2.434 2.434,-3.623 0.582,-3.016 -1.799,-6.057 -1.217,-3.016 -4.84,-4.232 -1.19,-1.799 0.582,-4.84 -3.016,-4.232 -1.799,-7.273 -3.041,-0.582 -3.016,0.582 2.407,1.217 0.608,1.824 v 2.408 l 1.217,5.449 0.607,3.623 1.217,6.057 1.19,9.654 1.217,9.68 v 21.768 l 0.608,26.609 1.217,9.045 z" /><path
     id="path9129"
     stroke="#000000"
     stroke-width="2.5392"
     d="m 1030.159,-107.615 -1.196,5.984 -1.796,8.979 v 12.568 l 1.796,5.984 1.196,4.189 5.387,5.387 8.978,5.385 5.386,-0.598 2.992,1.795 1.796,1.797 2.394,-0.6 2.395,-1.795 1.795,-2.992 1.197,-5.387 2.394,-4.189 2.993,-5.387 1.196,-4.787 -0.599,-5.387 -0.598,-3.592 -1.197,-3.59 1.197,-8.379 2.992,-4.789 4.189,-4.188 3.591,-4.789 2.992,-4.787 2.394,-2.992 1.796,-2.994 0.599,-2.393 4.189,-3.592 1.795,-7.779 0.599,-2.992 -1.795,-1.797 -0.599,-2.393 -0.599,-2.994 -1.796,-3.59 -1.795,-0.598 -3.591,1.795 1.196,2.393 h 1.796 l 1.197,1.797 0.599,1.795 v 4.189 l 0.598,2.992 v 3.592 l -3.591,1.197 -2.394,4.787 -2.394,1.197 -4.189,1.197 -5.985,-1.797 -2.394,-1.795 -1.197,-4.189 -0.599,-1.795 -1.196,-1.795 -2.395,-0.6 -2.394,-2.395 -0.599,-2.393 2.992,-2.395 2.395,-3.592 2.394,-0.598 1.795,1.795 2.993,-1.795 2.394,-3.59 -2.394,-2.994 -8.978,-2.393 -1.197,-2.992 -4.788,-1.797 -2.992,-2.992 -1.196,-2.395 -1.197,-3.59 -0.599,-5.984 -1.197,-4.789 -0.599,-7.182 -0.598,-5.387 v -4.787 l -0.599,-2.395 -1.197,-1.197 -1.197,0.6 -0.598,2.395 -2.993,3.59 -5.984,4.189 -1.796,4.189 -1.795,4.189 -1.796,3.592 v 3.59 l 1.796,6.584 4.189,4.787 5.984,2.395 6.583,2.992 2.993,4.189 1.196,4.189 1.197,3.59 v 4.189 4.789 l -1.795,10.174 -0.599,4.189 -1.197,3.592 -2.394,2.992 -4.788,1.197 -4.189,2.393 -3.591,-0.598 -4.189,3.59 -0.599,2.395 z" /><path
     id="path9131"
     stroke="#000000"
     stroke-width="2.5392"
     d="m 1101.379,-165.07 -4.788,1.197 -1.795,1.197 -1.796,0.598 -1.196,2.994 2.394,2.393 h 5.387 l 2.394,-0.598 1.795,-2.395 v -1.795 l -1.196,0.598 -1.796,-0.598 z" /><path
     id="path9133"
     stroke="#000000"
     stroke-width="2.5392"
     d="m 1112.75,-169.259 -2.992,1.797 1.796,2.393 1.196,0.6 1.796,-0.6 z" /><path
     id="path9135"
     stroke="#000000"
     stroke-width="2.5392"
     d="m 1074.447,-136.341 z" /><path
     id="path9137"
     stroke="#000000"
     stroke-width="2.5392"
     d="m 1073.4,-139.782 2.244,1.645 -1.796,1.197 -1.347,-1.496 z" /><path
     id="path9139"
     stroke="#000000"
     stroke-width="2.5392"
     d="m 996.046,-183.622 -4.189,1.197 v 1.795 l 3.591,1.797 0.599,1.195 1.795,1.197 5.387,1.797 3.591,1.195 1.197,-2.393 1.197,-1.797 -2.993,-1.795 -4.189,-0.598 -1.795,-0.6 -1.197,-0.598 z" /><path
     id="path9141"
     stroke="#000000"
     stroke-width="2.5392"
     d="m 927.22,-62.728 9.576,-2.395 3.591,0.6 2.992,1.795 5.985,-2.395 v -3.59 l -2.395,-2.994 1.197,-3.59 2.394,-1.795 1.197,-1.797 1.197,-2.393 h 1.795 v 1.795 l -1.196,1.197 2.992,2.992 2.394,4.189 v 4.189 l -1.196,5.387 -1.197,4.787 -2.992,2.992 -4.788,0.6 c 0,0 -3.591,-1.197 -5.985,-1.197 -2.394,0 -10.174,0 -10.174,0 l -4.788,-2.992 -1.796,-2.395 h -2.394 l -2.394,-0.598 0.599,-1.197 1.795,-1.197 h 3.591 z" /><path
     id="path9143"
     stroke="#000000"
     stroke-width="2.5392"
     d="m 1043.925,-302.72 -5.387,2.394 -1.197,2.395 -1.196,1.197 -3.591,1.196 -7.183,1.197 -0.599,2.992 1.796,5.985 3.591,6.583 -0.599,5.387 1.197,1.795 1.796,1.795 v 4.189 l 2.992,1.795 7.182,-1.197 2.992,-1.195 1.197,-2.992 0.599,-1.797 2.394,-2.992 1.197,-7.779 -0.599,-6.584 -0.599,-3.591 0.599,-4.189 -2.394,-1.795 -1.197,-2.395 v -2.394 z" /><path
     id="path9159"
     stroke="#000000"
     stroke-width="2.5392"
     d="m 356.864,-673.781 -6.583,1.796 -1.796,4.188 5.387,0.599 2.394,2.395 3.591,7.182 4.189,2.992 7.182,8.978 2.992,1.196 1.197,5.387 0.599,7.182 v 2.993 l 2.394,3.591 1.796,3.591 -0.599,2.992 2.395,4.788 2.394,2.394 4.788,1.197 2.394,-2.394 0.599,-1.796 -1.796,-1.796 h -2.394 -1.796 l -1.196,-2.394 2.394,-2.394 1.796,-2.993 1.795,-0.599 7.78,-0.598 4.189,0.598 2.992,-3.591 1.796,-5.984 0.599,-1.796 1.795,-4.787 0.599,-2.993 2.992,-1.196 2.395,1.795 v 1.796 l 2.394,2.394 2.395,2.992 1.795,-2.992 v -2.394 l 1.796,-2.395 -1.197,-1.795 -0.599,-2.395 -1.196,-4.188 v -2.395 l 3.591,-1.197 1.795,-1.795 -1.795,-1.796 -2.395,-0.599 -3.591,-0.598 -1.795,-1.197 -2.395,-1.197 -2.394,0.599 -2.395,1.796 v 2.992 l 1.197,2.992 -0.599,3.591 -2.992,0.599 h -2.992 l -0.599,-1.795 -0.599,-2.395 -3.591,-2.394 0.599,-2.993 2.992,-3.591 3.591,-1.795 0.599,-2.395 -0.599,-1.196 2.992,-0.599 0.599,-2.394 v -4.189 l -1.196,-1.197 v -2.395 l -1.197,-1.196 -1.796,0.599 -1.196,2.394 -1.796,-0.599 -6.583,1.197 -4.189,1.795 -5.387,1.796 -1.795,4.788 -1.197,1.196 -1.796,1.197 -1.795,1.197 -1.796,-1.197 -2.394,-2.394 -2.395,-2.395 -1.196,-1.795 -2.992,-3.591 -2.395,-3.591 -2.394,0.598 -1.796,1.796 -2.394,1.796 z" /><path
     id="path9161"
     stroke="#000000"
     stroke-width="2.5392"
     d="m 417.311,-581.614 -0.599,-8.978 1.795,-4.788 2.993,-2.394 1.795,-1.197 1.197,-3.591 0.599,-2.395 -0.599,-2.992 -1.197,-0.599 -1.197,-2.992 -1.795,-0.599 -1.796,2.395 -0.599,2.394 -1.795,2.394 -2.395,3.592 -1.795,2.992 -1.197,3.591 -0.599,4.788 0.599,4.787 v 4.189 l 1.197,1.796 0.599,1.796 1.196,0.598 v 1.796 l -1.795,0.599 -1.197,1.197 -0.599,1.196 v 1.796 l 1.796,-0.599 1.197,-1.796 2.394,-1.196 2.394,-2.993 0.599,-1.795 z" /><path
     id="path9169"
     stroke="#000000"
     stroke-width="2.5392"
     d="m 558.554,-759.963 -8.978,0.599 -7.182,-2.993 -3.591,2.993 0.598,5.386 5.985,1.197 0.599,5.387 4.189,4.188 2.992,2.993 2.992,4.189 h 5.387 l 3.591,-4.788 4.189,-4.189 h 8.379 l 1.795,-2.992 2.395,-2.395 -1.796,-1.795 -2.394,-1.197 -2.395,-2.394 4.189,-1.796 1.197,-3.591 -5.985,-1.197 -4.188,1.796 -4.788,-1.197 z" /><path
     id="path9173"
     stroke="#000000"
     stroke-width="2.5392"
     d="m 265.894,-271.599 -3.591,1.795 -1.197,2.395 -1.795,4.189 -0.599,4.189 1.196,2.992 h 2.993 l 5.386,-1.795 v -2.395 l 1.796,-4.789 0.599,-2.992 -1.197,-4.189 z" /><path
     id="path9183"
     stroke="#000000"
     stroke-width="2.5392"
     d="m 1412.591,-625.902 -5.984,-1.796 -4.788,-2.394 -5.386,2.394 -1.197,4.189 2.992,5.387 1.197,4.189 1.196,4.189 2.993,1.795 5.386,4.189 h 4.788 l 2.395,-2.992 2.394,-3.591 8.978,-7.78 2.394,-4.189 5.985,-2.992 6.583,-4.189 3.591,-1.796 0.599,-3.591 h -7.183 l -6.583,1.796 -11.97,1.795 0.599,2.395 h -4.189 z" /></g><g
   id="g2"
   style="fill:#ffaaf6"
   transform="translate(-165.62946,1277.3855)"><path
     id="path4184"
     stroke="#000000"
     stroke-width="0.8464"
     d="m 1563.091,-43.038 3.861,1.111 5.079,2.539 5.925,7.617 6.771,7.617 9.311,2.539 7.617,-0.846 6.771,0.846 2.539,3.387 -3.386,5.924 -1.693,5.078 5.079,2.539 4.231,3.387 4.232,3.385 0.846,4.232 -7.617,4.23 -3.386,4.232 -4.231,2.539 -8.464,-1.691 -9.311,5.078 -3.386,8.463 3.386,14.389 4.232,6.771 -4.232,5.078 1.693,6.771 7.617,3.385 5.925,1.693 3.385,-5.078 0.847,-5.926 5.079,2.539 6.771,4.232 4.231,-4.232 5.079,0.848 11.849,5.924 6.771,7.617 2.592,3.969 3.386,-1.535 5.132,-2.564 0.872,-6.004 5.978,0.871 4.259,-4.283 1.72,1.719 7.696,1.693 3.412,0.871 1.719,1.693 3.412,3.439 9.416,0.846 4.259,-1.719 -0.847,-1.693 2.565,-0.873 h 4.285 l 0.847,3.439 v 1.691 l -0.847,6.004 1.693,3.412 2.564,2.566 3.439,2.564 6.823,5.133 3.438,1.719 0.847,2.566 1.72,2.539 3.411,0.871 3.412,2.566 h 3.412 l 2.565,-0.873 1.72,-3.412 2.565,-3.412 6.851,-4.285 5.131,-0.846 5.132,-0.846 4.258,-2.566 1.719,-0.873 v -5.131 -3.412 l -1.719,-4.285 -0.847,-2.564 0.847,-4.26 0.847,-0.871 v -2.541 l -0.847,-6.004 h -2.565 l -0.847,-5.131 -3.412,-3.412 v -2.564 -2.566 l -3.438,-4.285 -0.847,-2.564 -4.284,-1.693 2.565,-2.566 h 3.438 l 1.692,-1.719 -1.692,-5.131 -3.438,-3.412 -3.412,-5.977 -2.565,-1.721 -2.565,-4.285 0.846,-2.564 2.566,-1.693 0.873,-5.131 -3.439,-3.438 -2.564,0.871 -0.847,4.26 h -1.72 l -1.692,-1.693 -0.873,-5.979 -1.692,-4.283 0.846,-3.412 3.412,-5.131 2.566,-6.006 1.719,-5.977 v -5.979 l -2.565,-10.262 -3.412,-8.543 -2.565,-5.131 0.846,-7.697 -1.719,-11.109 -1.693,-6.004 -2.565,-4.258 -2.565,-2.566 -0.846,-6.004 -2.566,-9.389 -4.285,-8.543 -1.719,-6.852 0.873,-6.85 v -5.979 l 6.824,-6.824 1.719,-11.135 5.978,-11.109 4.285,-6.85 6.823,-4.258 1.72,-3.412 4.285,-2.566 0.847,-3.438 1.719,-2.566 1.692,-4.258 2.565,-5.131 v -4.285 l -5.131,-2.566 -2.565,-0.846 -2.565,-4.285 -5.131,-5.977 -11.109,-7.697 -5.131,-0.848 -4.259,-3.438 -5.131,-3.412 h -17.113 l -5.978,-1.719 -5.978,-2.566 -6.004,-0.846 -5.978,-5.131 -5.131,-5.133 -7.697,-3.412 -11.109,-2.564 -4.284,-3.412 h -8.544 l -17.959,5.977 -13.674,4.285 -17.087,6.824 -3.438,3.412 -4.258,8.57 -6.851,5.131 -0.847,6.824 -8.569,7.697 -12.802,3.412 -15.394,7.695 -7.696,6.004 -16.24,11.109 -11.136,4.285 -13.675,5.105 -5.131,4.283 -1.692,5.979 2.565,2.566 0.847,1.719 1.719,1.719 2.565,4.258 7.671,3.439 6.004,-0.873 6.824,-3.412 h 4.284 l 3.412,-2.566 5.131,-3.412 7.697,-3.438 h 6.851 l 4.259,4.285 2.565,2.564 1.719,3.412 0.847,5.131 2.565,5.979 2.565,3.438 0.873,9.391 -0.873,6.85 0.873,7.697 4.258,0.848 2.566,1.719 1.719,1.719 -4.285,7.67 -4.258,5.131 -0.873,3.439 2.566,14.521 3.438,2.564 v 5.979 l 0.847,6.85 1.72,8.543 z" /><path
     id="path11168"
     stroke="#000000"
     stroke-width="0.8464"
     d="m 1487.498,-16.747 6.665,1.904 11.85,-1.693 1.693,-3.385 1.692,-1.693 5.078,3.387 8.464,4.23 3.889,2.328 1.692,-3.359 5.131,-2.564 1.72,4.283 0.846,3.412 1.72,4.285 2.565,-4.285 2.565,-2.564 6.824,-2.566 3.438,-4.258 2.565,-3.439 0.847,-6.822 -1.719,-8.545 -1.693,-4.283 -3.438,-7.697 -0.847,-8.543 v -12.828 l -1.719,-7.697 -3.412,-5.131 -3.412,-5.131 -2.565,-5.133 0.847,-6.85 0.846,-5.977 4.285,-2.566 2.565,-5.131 -0.847,-5.131 -3.438,-5.133 -8.544,-0.846 -4.258,-5.979 -7.697,-3.438 -7.696,-5.105 h -5.132 l -2.565,3.412 -0.873,5.131 0.873,7.697 1.693,2.566 1.719,1.693 6.851,7.695 -1.72,6.004 -2.565,1.693 0.847,3.412 4.285,1.719 2.565,3.412 1.719,6.004 0.847,5.131 -3.412,4.26 -1.719,7.697 -1.72,4.283 -4.259,3.412 -4.284,-1.719 h -7.697 l -5.131,5.131 -3.412,3.439 -3.412,5.977 v 9.416 l -2.565,5.131 v 11.955 l 1.692,5.979 z" /><path
     id="path9081"
     stroke="#000000"
     stroke-width="2.5392"
     d="m 1443.743,-308.669 3.627,3.022 1.814,0.604 0.604,3.627 -1.209,3.023 -3.022,-3.628 h -3.627 z" /><path
     id="path9083"
     stroke="#000000"
     stroke-width="2.5392"
     d="m 1799.224,53.464 1.21,-7.859 -0.605,-6.047 -0.604,-2.418 -1.813,-1.209 -1.813,1.814 -1.813,1.813 -1.814,1.209 -3.022,3.629 -3.022,4.23 -0.604,6.65 1.209,4.232 3.022,4.232 1.814,2.418 3.022,2.418 3.022,-1.814 4.232,3.023 1.813,-3.023 -2.419,-2.418 -1.813,-3.021 0.604,-3.629 z" /><path
     id="path10156"
     stroke="#000000"
     stroke-width="2.5392"
     d="m 1615.477,-640.864 -3.591,4.189 0.599,7.182 -1.197,4.787 -4.788,8.978 -5.386,7.182 -1.197,4.189 -1.796,6.584 -3.591,7.78 -2.394,10.772 -1.197,6.583 v 4.189 l 1.796,6.584 1.197,6.583 1.196,13.167 -0.599,8.379 -2.394,5.386 -1.197,4.189 -2.394,4.189 -1.796,4.788 1.796,3.591 2.394,1.197 5.387,2.992 6.583,7.182 4.788,4.788 11.371,4.189 7.182,1.196 6.583,3.591 5.387,3.592 9.576,2.394 6.583,2.992 12.568,5.387 4.788,5.984 3.591,4.788 c 0,0 7.182,1.796 9.575,2.395 2.395,0.598 7.182,1.196 7.182,1.196 l 5.985,1.796 10.772,1.795 4.189,2.395 c 0,0 0.599,3.591 7.182,1.795 6.584,-1.795 8.379,-2.394 8.379,-2.394 l 2.992,-4.788 5.387,-5.984 3.591,-1.796 1.796,-4.788 -0.599,-5.386 -0.599,-1.796 -4.189,-2.992 -1.795,-3.591 3.591,-4.189 1.795,-2.992 1.796,-4.189 1.795,-1.796 1.197,-3.591 1.197,-0.599 4.189,-3.591 -0.599,-5.984 -0.599,-5.985 v -5.984 l -2.395,-2.395 2.993,-5.386 0.599,-2.993 1.197,-2.394 v -4.189 l -1.796,-1.796 -1.197,-2.992 -2.992,-1.197 -1.796,-1.196 -4.189,-1.796 -6.583,-1.795 -3.591,-2.992 -7.182,-2.395 -6.584,-4.788 -4.189,-2.394 -8.378,-4.189 -4.189,-5.984 -6.583,-4.189 -2.993,-4.788 v -5.985 l -1.796,-0.599 -2.992,-2.394 -2.992,1.796 -3.591,1.196 c 0,0 1.197,0 -1.796,-0.599 -2.992,-0.598 -5.984,-4.188 -5.984,-4.188 l -5.387,-1.197 -2.394,-2.395 -8.379,-4.787 -3.591,-4.189 -8.978,-5.387 -4.788,-3.591 -1.795,-4.189 -5.387,-8.379 -5.386,-5.984 -3.591,-3.591 -1.197,-4.788 z" /><path
     id="path10158"
     stroke="#000000"
     stroke-width="2.5392"
     d="m 1762.106,-655.827 z" /><path
     id="path10160"
     stroke="#000000"
     stroke-width="2.5392"
     d="m 1762.705,-652.834 3.591,-0.599 v -2.395 h -3.591 z" /></g>
</svg>
